<svg xmlns="http://www.w3.org/2000/svg" viewBox="0 0 2000 2000"><defs><style>.cls-1{fill:#918eba;opacity:0.15;}.cls-2{fill:#edb0a4;}.cls-3{fill:#f7b8ab;}.cls-4{fill:#3c5475;}.cls-5{fill:#456187;}.cls-6{fill:#f3e3c7;}.cls-31,.cls-7{fill:#3b7ada;}.cls-7{opacity:0.12;}.cls-8{fill:#8a9ca5;}.cls-9{fill:#212934;}.cls-10{fill:#65a0e0;}.cls-11{fill:#6dadf2;}.cls-12{fill:#ffc8bd;}.cls-13{fill:#b94f43;}.cls-14,.cls-15{fill:#061c3b;}.cls-14,.cls-37{opacity:0.17;}.cls-15{opacity:0.26;}.cls-16{fill:#d4e6ff;}.cls-17{fill:#192138;}.cls-18,.cls-22,.cls-32,.cls-37{fill:#fff;}.cls-19{fill:#1e2742;}.cls-20{fill:#658dc4;}.cls-21{fill:#313654;}.cls-22{opacity:0.1;}.cls-23{fill:#f7beb2;}.cls-24{fill:#85bfff;}.cls-25{fill:#d0eff7;}.cls-26{fill:#292c3d;opacity:0.21;}.cls-27{fill:#5c6687;}.cls-28{fill:#3c476b;}.cls-29{fill:#424c6b;}.cls-30{fill:#bfd3ff;opacity:0.27;}.cls-32{opacity:0.14;}.cls-33,.cls-36{fill:#3268ba;}.cls-33{opacity:0.63;}.cls-34{fill:#5f7c87;}.cls-35{fill:#1a2029;}</style></defs><title>Mesa de trabajo 2</title><g id="Layer_2" data-name="Layer 2"><ellipse class="cls-1" cx="1000" cy="1611.15" rx="760.24" ry="36.49"/><path class="cls-2" d="M949.94,926.52c-.49,4.82-10.74,7.46-18.52,9.47a77.33,77.33,0,0,1-28.21,1.9l-26.43-23.47c-.23-.11-.45-.27-.66-.37-1.16-.56-2-1-2.19-1.09-1.49-.69-5.49-2.72-7.23-3.58-4.65-2.29-46.53-22.52-85.36-42.81-6.92-3.61-13-6.83-18.59-10.05-1-.59-2.08-1.19-3.09-1.79q-14.8-18.22-29.65-36.47l26.57-21.86,31.55,24.48Q834.8,857,881.47,893.25l2.72,1.16.53.2h0a3.82,3.82,0,0,0,.36.17l.38.16c1,.13,2,.27,2.93.42h0a98.82,98.82,0,0,1,23.37,6.53c2.12.88,4.05,1.8,7.1,3.36C939.52,915.76,950.47,921.34,949.94,926.52Z"/><path class="cls-2" d="M917.21,905.24c17.21.25,35.89-3.27,35.8-6-.1-3-22.48-4.79-35-5.14a204.62,204.62,0,0,0-30.21,1.38c-.91.66-2,1.68-1.91,2.8C886.21,902.6,904.2,905,917.21,905.24Z"/><path class="cls-2" d="M750.93,1040.49c4.39,46.37,4.6,75,4.79,115.94.21,45.81,3.46,55.94-.58,89.22-.3,2.53-7.72,61.41-21.27,62-5,.23-7-7.72-22.94-20.44-2.78-2.21-5.31-4-7.52-5.53-4.38-3-7.73-4.87-8.14-5.12-11.35-6.69-22.51-78.4-29.08-110.9-3.8-18.8-11.07-49.22-11.07-49.22h0a628,628,0,0,1,.46-96.89c9-5.3,57.64-33.14,81.77-14.39C748.19,1013.6,749.76,1028.05,750.93,1040.49Z"/><path class="cls-3" d="M677.26,1013c6.77,46.09,8.46,74.66,10.76,115.54,2.58,45.74,6.34,55.69,4,89.13-.18,2.54-4.55,61.72-18,63-5,.49-7.37-7.35-24-19.23-2.88-2.07-5.51-3.76-7.79-5.14-4.53-2.75-8-4.47-8.39-4.69-11.68-6.1-26.52-77.14-34.76-109.25-4.77-18.59-13.59-48.59-13.59-48.59h0A626.39,626.39,0,0,1,581,997c8.73-5.77,55.85-36.08,80.91-18.6C673.13,986.23,675.44,1000.59,677.26,1013Z"/><path class="cls-2" d="M515,1528c7.75,5.44,16.37,4,18.56,3.55A26.52,26.52,0,0,0,550.58,1519c9.82-10.87,20.18-22.36,30.88-34.28,1-1.15,2.07-2.31,3.11-3.47,51.66-57.58,111-124.39,158.36-176.84l1.71-1.9c.76-1.11,1.52-2.26,2.28-3.38a55.15,55.15,0,0,0,4.91-19.1,49.23,49.23,0,0,0-4.14-24c-.09-.19-.17-.38-.28-.57a39.56,39.56,0,0,0-9.23-12.66c-7.68-7-18.1-10.69-29.07-10.8a51.87,51.87,0,0,0-11.5,1.14,54.12,54.12,0,0,0-22.66,10.9,56.74,56.74,0,0,0-7.8,7.71c-.42.51-.74.9-.85,1-7.54,9.54-13.82,17.58-19,24.29-16.94,21.85-22.41,29.53-22.41,29.53-19.27,27.11-35.58,61.28-43.65,79q-28.32,44.68-57,89.13-9.5,14.73-19,29.42C504,1513.72,507.68,1522.93,515,1528Z"/><path class="cls-4" d="M750,1000q.25,6.16.52,12.32,4.89,48.53,9.16,98.19,7.41,86.33,12.42,169.67-100.58,114.19-201.14,228.41l-57.11-16q71-126.83,141.94-253.65c-18.11-56.43-31.71-130.75-18.47-214.17,1.84-11.64,4.11-22.84,6.72-33.6Z"/><path class="cls-3" d="M676.79,1569.41c9.54-1.37,15-8.52,16-10a26.56,26.56,0,0,0,3.93-20.84c-.23-14.64-.48-30.11-.76-46.13,0-1.55-.06-3.11-.1-4.66-1.42-77.34-3.53-166.66-4.6-237.33,0-.85,0-1.72,0-2.56-.2-1.34-.43-2.7-.64-4a55.45,55.45,0,0,0-9.41-17.33,49.48,49.48,0,0,0-19.37-14.72l-.59-.23a39.76,39.76,0,0,0-15.38-3c-10.39.11-20.53,4.51-28.64,11.9a52.2,52.2,0,0,0-7.64,8.68,54.27,54.27,0,0,0-9.16,23.41,57.11,57.11,0,0,0-.45,11c0,.66.07,1.16.09,1.35,1,12.12,1.87,22.28,2.64,30.74,2.49,27.53,3.72,36.88,3.72,36.88,4.36,33,15.71,69.1,21.91,87.61,7.13,33.25,13.56,68,19,104.06q2.52,16.66,4.68,33C657.68,1565.93,667.38,1570.77,676.79,1569.41Z"/><path class="cls-5" d="M687,1018.49q8.38,135.24,11.33,280.94,2.36,125.33,0,243.15l-51.65,7.56c-14.27-47-25.58-87-34-117.79-6-21.85-9-33-11.34-43.47-10.91-49.49-13.57-92-15.12-118.42-.72-12.17-1.07-22.22-1.26-29-17.24-38.75-45.88-119.93-16.38-204.09a223.38,223.38,0,0,1,13.86-31.5Z"/><rect class="cls-6" x="979.25" y="1487.61" width="543.88" height="61.56"/><rect class="cls-7" x="979.25" y="1487.61" width="482.95" height="61.56"/><rect class="cls-8" x="1274.74" y="1549.17" width="296.38" height="60.31"/><rect class="cls-9" x="1274.74" y="1549.17" width="296.38" height="13.47"/><path class="cls-2" d="M788.14,840.49c-4.11,9.32-14,15.49-25.39,16-1-.59-2.08-1.19-3.09-1.79q-14.8-18.22-29.65-36.47l-62.65-77q7.47-33.56,14.93-67.09l6.32.63a84.3,84.3,0,0,1,8.84,6.63,87.87,87.87,0,0,1,18.31,22.11c8.11,13.4,35.49,57.16,72.37,117.38.29.45.57.91.85,1.36C789.77,824.92,791.64,832.52,788.14,840.49Z"/><path class="cls-10" d="M746.71,750.23l-50.66,33-29.67-43.84c-22.4-7.26-34-28.2-30.19-43.2,4.46-17.34,30.83-31.4,56.84-19.57a103.83,103.83,0,0,1,12.63,11.05c8.28,8.52,12.94,16.18,16.73,22.42C730.3,723.15,738.16,736.05,746.71,750.23Z"/><path class="cls-2" d="M686.36,697.81A173.2,173.2,0,0,1,676,676.58a60.14,60.14,0,0,1-1.89-6.18c-.2-.88-.39-1.79-.55-2.71,0,0-.25-1.4-.42-2.85-.24-2.05,1.39-16.19,5.1-35.39a86.37,86.37,0,0,1-56-23.54c0,1.74-.09,4.33-.28,7.46-.73,11.91-2.65,20.34-5.54,33.1l-6.63,29.26-6.66,4.8a45.82,45.82,0,0,0,8.37,13.41c9.9,11,22.41,13.81,30.41,15.5,17.36,3.68,41.8,2.63,44.77-6.5A7.9,7.9,0,0,0,686.36,697.81Z"/><path class="cls-11" d="M750.18,1002.51l-.08,0a326.18,326.18,0,0,1-66.23,18.92,329.77,329.77,0,0,1-110.51.36v-18.62c.1-1.41.19-2.82.27-4.2,3.2-54.48-1.15-98.18-6.41-130-10-60.77-31.41-127.55,4.52-172.12l.13-.15c.28-.48.58-.92.88-1.38a37.27,37.27,0,0,1,8.13-8.26s.69-.52,1.43-1c5.32-3.62,20.79-11.28,27.12-14.37.42-.2.78-.39,1.11-.56.29.26.58.5.86.74,10.53,8.93,20.64,15.68,29.58,20.07,13.58,6.7,24.48,8,30.08,3.25,2-1.64,6.32-6.59,4-21.69a102.2,102.2,0,0,1,28.38,21.81c36.69,40.5,21.36,88.27,35.83,198.35,1.1,8.31,3.88,32.41,7.09,65.93C748.07,977.07,749.32,991.8,750.18,1002.51Z"/><path class="cls-12" d="M712.92,512.25a93.31,93.31,0,0,1,8.08,16c17.65,44.45,9.34,109.26-26.78,108.5-53.46-1.12-75.55-16.09-93-55.35-16.31-36.69-12.42-89.19,20.89-106.26a51.62,51.62,0,0,1,12.1-4.21,55.41,55.41,0,0,1,11.29-.94C656.11,470.25,691.52,478.84,712.92,512.25Z"/><path class="cls-12" d="M727.6,555.17s8,16.48,12.25,17.52,2.53,5.86,2.53,5.86l-13.13,5.8Z"/><path class="cls-13" d="M702.53,538a152.64,152.64,0,0,0,36.87-27.61c-2.49-3.09-6.17-7.73-10.51-13.45-15.34-20.19-16-23.69-21.63-28.42-11.77-9.88-26.93-9.32-39.06-9.61-21.25-.52-38.33,8.19-48.2,14.62-8.93,3.72-27.57,13.07-36.93,32.73C562.77,549,602,606.79,619.76,604.76c8.67-1,16.38-16.07,26.73-36.26,3-5.86,5.14-10.82,6.48-14.11A152.87,152.87,0,0,0,702.53,538Z"/><path class="cls-12" d="M624.1,557.52c-2.56,5.19-2.15,11.06,7.1,15.62s18.82,4,21.38-1.16-2.86-13.1-12.11-17.65S626.66,552.32,624.1,557.52Z"/><path class="cls-11" d="M576.41,546.08l.49.95,141.63-69.45-.76-1.23a56.64,56.64,0,0,0-75.88-25.75l-39.71,19.6a56.67,56.67,0,0,0-25.77,75.88Z"/><path class="cls-5" d="M576.85,547l5.32,10.89,142-69.22,57.37-28-.11-.08a20.86,20.86,0,0,0-22.77-2.86l-40,19.67Z"/><path class="cls-14" d="M576.41,546.08l.49.95,141.6-69.52-.73-1.16a56.48,56.48,0,0,0-5.06-8.36c-18.14,16.38-35.75,22.35-45.45,24.78-8.31,2.08-43,10.78-53.92-5.37-4.67-6.91-3.37-16-1.81-21.85a75.8,75.8,0,0,0-19.73,11.51,60.53,60.53,0,0,0-10,9.79c-14.09,17.93-10.95,40.38-10.56,42.87A56.65,56.65,0,0,0,576.41,546.08Z"/><path class="cls-15" d="M576.85,547l5.32,10.89,142-69.22c-1.85-3.76-3.7-7.52-5.56-11.25Z"/><path class="cls-16" d="M635.17,1568.68c-.46,1.44-.91,2.9-1.36,4.38-.62,2-1.22,4.09-1.79,6.1a482.89,482.89,0,0,1-133.14-30.9q.87-3.81,1.75-7.61-.39-6.14-.77-12.25Z"/><path class="cls-17" d="M500.7,1541c105.92,33.63,132.26,34.24,135.23,27.61,2.36-5.26-9.53-17.92-17.53-24.2-8.71-6.83-14.11-7.17-21.1-10.21a40.74,40.74,0,0,1-3.82-1.89c-1-.56-2.06-1.18-3.14-1.91s-2.23-1.54-3.43-2.47q-.75-.57-1.56-1.23c-.51-.44-1.05-.87-1.59-1.33-1-.88-2.09-1.79-3.22-2.74-.9-.76-1.87-1.51-2.88-2.28s-2.2-1.61-3.45-2.43c-1.09-.72-2.26-1.43-3.53-2.12-1.06-.59-2.22-1.17-3.45-1.76-.13,0-.24-.12-.36-.17-1.38-.63-2.7-1.18-3.94-1.65-1.5-.58-2.89-1-4.15-1.44s-2.09-.6-3-.83l-.06-2.26a108,108,0,0,1-50.33-3.69,50.37,50.37,0,0,0-4.72,37Z"/><path class="cls-17" d="M534.05,1490.71c-1.53,2.22-1.39,4.54-1.13,9.08s.52,8.88,3.5,12.88c1,1.36,4.18,5.61,9.3,6.1s10.7-3.11,13.56-9a45.41,45.41,0,0,0,.5-9.75c-.34-6.07-.56-10.17-3.49-12.58s-6.76-1.84-11.4-1.22C540.66,1486.77,536.34,1487.35,534.05,1490.71Z"/><path class="cls-18" d="M566.36,1533.11a2.13,2.13,0,0,0,2.94-.55l8.36-12.25c-1.07-.81-2.2-1.61-3.45-2.43l-8.39,12.29A2.12,2.12,0,0,0,566.36,1533.11Z"/><path class="cls-18" d="M558.18,1530.29a2.11,2.11,0,0,0,2.94-.54l9.56-14c-1.06-.59-2.22-1.17-3.45-1.76-.13,0-.24-.12-.36-.17l-9.24,13.53A2.11,2.11,0,0,0,558.18,1530.29Z"/><path class="cls-18" d="M549.92,1527.45a2.12,2.12,0,0,0,2.94-.55l10.07-14.72c-1.5-.58-2.89-1-4.15-1.44l-9.4,13.79A2.09,2.09,0,0,0,549.92,1527.45Z"/><path class="cls-18" d="M573.55,1536.54a2.13,2.13,0,0,0,2.94-.54l7.27-10.67c-1-.88-2.09-1.79-3.22-2.74l-7.54,11A2.11,2.11,0,0,0,573.55,1536.54Z"/><path class="cls-18" d="M581.73,1539.2a2.12,2.12,0,0,0,2.94-.55l5.67-8.29c-1.09-.72-2.23-1.54-3.43-2.47l-5.73,8.37A2.12,2.12,0,0,0,581.73,1539.2Z"/><path class="cls-18" d="M589.89,1541.25a2.12,2.12,0,0,0,2.94-.55l4.47-6.54a40.74,40.74,0,0,1-3.82-1.89l-4.13,6A2.11,2.11,0,0,0,589.89,1541.25Z"/><path class="cls-16" d="M789.49,1602.83c-.26,1.49-.5,3-.73,4.52q-.5,3.18-.92,6.29a482.45,482.45,0,0,1-136.16-11.85l.66-7.78-2.49-12Z"/><path class="cls-19" d="M652.45,1594.31c109.6,18.38,135.77,15.28,137.77,8.3,1.6-5.54-12-16.4-20.76-21.49-9.58-5.54-15-5.11-22.33-7.14a38.09,38.09,0,0,1-4-1.34,35.9,35.9,0,0,1-3.39-1.45c-1.17-.55-2.42-1.2-3.74-2-.55-.32-1.12-.64-1.71-1s-1.17-.72-1.76-1.1c-1.13-.73-2.33-1.48-3.58-2.26-1-.62-2.06-1.23-3.17-1.85s-2.4-1.28-3.76-1.92c-1.17-.55-2.44-1.09-3.79-1.6q-1.71-.65-3.66-1.26l-.39-.11c-1.45-.44-2.83-.79-4.13-1.09-1.56-.36-3-.63-4.31-.83-1.14-.18-2.16-.3-3.06-.41l-.37-2.23a108.08,108.08,0,0,1-50.36,3.44,50.45,50.45,0,0,0,.54,37.29Z"/><path class="cls-19" d="M678.39,1539.86c-1.19,2.42-.73,4.7.17,9.15s1.76,8.73,5.27,12.27c1.2,1.2,4.93,5,10.07,4.72s10.16-4.58,12.16-10.83a45.49,45.49,0,0,0-.88-9.72c-1.19-6-2-10-5.23-12s-7-.87-11.46.4C684.39,1535,680.19,1536.21,678.39,1539.86Z"/><path class="cls-18" d="M716.36,1577.29a2.12,2.12,0,0,0,2.83-1l6.55-13.31c-1.18-.65-2.4-1.28-3.76-1.92l-6.58,13.35A2.11,2.11,0,0,0,716.36,1577.29Z"/><path class="cls-18" d="M707.86,1575.66a2.11,2.11,0,0,0,2.83-1l7.5-15.19q-1.71-.65-3.66-1.26l-.39-.11-7.24,14.69A2.12,2.12,0,0,0,707.86,1575.66Z"/><path class="cls-18" d="M699.28,1574a2.11,2.11,0,0,0,2.83-1l7.9-16c-1.56-.36-3-.63-4.31-.83l-7.37,15A2.09,2.09,0,0,0,699.28,1574Z"/><path class="cls-18" d="M724,1579.68a2.12,2.12,0,0,0,2.83-1l5.71-11.59c-1.13-.73-2.33-1.48-3.58-2.26l-5.91,12A2.11,2.11,0,0,0,724,1579.68Z"/><path class="cls-18" d="M732.42,1581.16a2.13,2.13,0,0,0,2.84-1l4.44-9c-1.17-.55-2.42-1.2-3.74-2l-4.49,9.09A2.12,2.12,0,0,0,732.42,1581.16Z"/><path class="cls-18" d="M740.8,1582a2.11,2.11,0,0,0,2.83-1l3.5-7.11a38.09,38.09,0,0,1-4-1.34l-3.25,6.57A2.11,2.11,0,0,0,740.8,1582Z"/><path class="cls-20" d="M645.35,1017a107.4,107.4,0,0,1,1.26,19c-.93,42-26.5,72.74-39.36,86.09q3.9-51.88,7.79-103.77Z"/><path class="cls-21" d="M639,1017a120,120,0,0,1,1.26,19c-.51,39.41-20.5,69.33-32.84,84.62l1.26-102.3Z"/><path class="cls-5" d="M637.77,785.28q-5.26,109.77-10.52,219.54a142.62,142.62,0,0,0,121.24-14.31q-3.12-43.46-6.73-87.57-5.32-64.83-11.47-128.08Z"/><path class="cls-21" d="M664.3,1027.55a393.47,393.47,0,0,1-90.94-5V998.93l.27.06c38.14,5.45,67.73,5.92,86.46,5a453.42,453.42,0,0,0,89-13.48,60.23,60.23,0,0,1,1.26,22.1A393.24,393.24,0,0,1,664.3,1027.55Z"/><path class="cls-21" d="M638.4,785.28l14.53-1.58a580.41,580.41,0,0,0-29.37-74.84c-6-12.56-12.11-24.34-18.31-35.36l-15.79,6.32c6.59,10.77,13.18,22.45,19.58,35A510.61,510.61,0,0,1,638.4,785.28Z"/><path class="cls-21" d="M673.56,671c5.22,8.86,10.39,18.4,15.36,28.63a406.41,406.41,0,0,1,28.21,77l13.68-1.47a348.66,348.66,0,0,0-28.41-76.41c-4.27-8.31-8.69-16.1-13.16-23.36Z"/><path class="cls-22" d="M652.09,801.48l73.67-8.84q1.26,11.58,2.53,23.16l-75.15,9.68Z"/><path class="cls-23" d="M655.18,890.13c-13.17-69.06-26.59-118.2-35.7-148.36-5-16.46-12.83-41-31.45-46.26-9.82-2.78-22.62-.13-29.79,7.85-8.34,9.29-6.9,23.39-5,34,9,50,50.38,146.18,57.85,163.43Z"/><path class="cls-24" d="M630.62,777.56,566.49,796.4c-2.32-6.61-5.45-16.21-8.5-28-1.46-5.69-2.68-10.41-3.62-15.54-3.23-17.62-7.09-38.61,4.42-51.08a28.5,28.5,0,0,1,21.22-9c12.81.38,21.49,10.7,25.34,15.28a52,52,0,0,1,8,13.21C621.91,741,627.69,764.38,630.62,777.56Z"/><path class="cls-6" d="M979.88,1500.6c-30.36-14.95-52.68-37.93-52.8-59.45a95.31,95.31,0,0,1,8.06-38.12c2-4.46,4.12-9.07,6.17-14.41,10-26.11,8.91-43.26,7.38-67-1-15.7-2.15-33.5-.2-57.54,2.76-34.12,11-68.72,24.41-102.84l11.75,4.62c-13,33-20.91,66.36-23.57,99.24-1.87,23.12-.76,40.44.22,55.71,1.56,24.39,2.8,43.66-8.2,72.34-2.18,5.7-4.45,10.7-6.45,15.11-5.38,11.84-8.93,19.67-7.11,30.87,2.82,17.3,17.06,33.2,42.31,47.28Q980.88,1493.5,979.88,1500.6Z"/><rect class="cls-25" x="948.56" y="929.46" width="12.45" height="320.26" transform="translate(-386.41 541.85) rotate(-26.56)"/><rect class="cls-26" x="954.45" y="928.07" width="6.22" height="320.26" transform="translate(-385.49 542.94) rotate(-26.56)"/><rect class="cls-27" x="1011.34" y="1199.18" width="15.24" height="37.36" transform="translate(-436.98 584.08) rotate(-26.56)"/><rect class="cls-28" x="799.37" y="937.2" width="163.9" height="10.85" transform="translate(-328.45 493.5) rotate(-26.56)"/><rect class="cls-29" x="798.83" y="939.46" width="163.9" height="4.15" transform="translate(-328.03 493.14) rotate(-26.56)"/><rect class="cls-30" x="798.35" y="937.44" width="163.9" height="6.29" transform="translate(-327.65 492.83) rotate(-26.56)"/><path class="cls-31" d="M1523.13,1373v114.57H979.25V1101.36h272.18c117.12,0,216.92,74.09,255.1,178q2.74,7.48,5.07,15.17A271.65,271.65,0,0,1,1523.13,1373Z"/><path class="cls-32" d="M1523.13,1373v114.57H979.25V1101.36h272.18c117.12,0,216.92,74.09,255.1,178q2.74,7.48,5.07,15.17A271.65,271.65,0,0,1,1523.13,1373Z"/><path class="cls-31" d="M979.25,1144.64h241.7a241.25,241.25,0,0,1,241.25,241.25v101.72a0,0,0,0,1,0,0H979.25a0,0,0,0,1,0,0v-343A0,0,0,0,1,979.25,1144.64Z"/><rect class="cls-33" x="979.25" y="1430.03" width="543.88" height="57.58"/><path class="cls-33" d="M1511.6,1294.49H979.25v-15.17h527.28Q1509.28,1286.8,1511.6,1294.49Z"/><circle class="cls-34" cx="1138.7" cy="1539.39" r="70.09" transform="translate(-621.13 2293.95) rotate(-76.72)"/><circle class="cls-9" cx="1138.7" cy="1539.39" r="64.41"/><circle class="cls-35" cx="1138.7" cy="1539.39" r="52.81"/><circle class="cls-34" cx="1138.7" cy="1539.39" r="13.26" transform="translate(-621.13 2293.95) rotate(-76.72)"/><path class="cls-21" d="M935.83,1556.7l-12.61-.74c2.83-48.74-5.82-55.85-8.54-56.87-3.12-1.16-8,1.9-12.71,4.85-6.17,3.87-13.16,8.26-20.41,5.15-7.88-3.39-15.85-13.91-7.39-65.6,4.8-29.31,10.68-50.93,11.36-53,40.63-122.13,33.69-111.19,52.83-159.4,8.7-21.9,21.06-51.66,37.26-86.62l10.16,7.79c-37.35,81.35-67,162.6-88,241.49-.06.25-6.84,25.73-11.1,51.84-7.72,47.18-.16,51.84-.08,51.87,1.15.51,6.64-2.94,8.71-4.23,6.62-4.16,14.88-9.34,23.84-6C933,1492.45,938.27,1514.51,935.83,1556.7Z"/><path class="cls-8" d="M961.14,1549.17v38.56c0,12-7.89,21.76-17.63,21.76H896.22c-9.74,0-17.64-9.75-17.64-21.76v-38.56Z"/><rect class="cls-9" x="878.58" y="1549.17" width="111.88" height="13.48"/><rect class="cls-36" x="979.25" y="1101.36" width="65.82" height="386.25"/><circle class="cls-34" cx="1012.16" cy="1526.13" r="42.31"/><circle class="cls-34" cx="1012.16" cy="1526.13" r="38.88"/><circle class="cls-35" cx="1012.16" cy="1526.13" r="28.42" transform="translate(-705.7 2160.58) rotate(-76.72)"/><circle class="cls-34" cx="1012.16" cy="1526.13" r="8" transform="translate(-506.98 503.51) rotate(-22.5)"/><path class="cls-12" d="M902.41,937.14c11.11,2.07,32.6,4.44,46.62-6.66,4.33-3.43,5.47-6,5.66-8,.7-7.22-9.13-14.8-18-15.93-1.68-.21-6.3-.8-9.89,1.9-3,2.25-3.86,5.73-4.21,6.94C921.16,920.26,916.6,927.43,902.41,937.14Z"/><path class="cls-23" d="M767.3,967.91l.34.16.34.16c3.5,5,19.28,26.39,44,28,5.81.39,16.79,1.12,25-6.7,5.25-5,10.54-14.46,7.58-21.78-2.19-5.41-8.18-7.89-42.61-14.63-11.11-2.18-20.34-3.85-26.76-5L628.14,857.68c-12.4,3.43-21.27,13.31-22.32,24.56-.94,10.15,4.83,17.69,6.4,19.62Z"/><path class="cls-23" d="M807,956.17c8.44-1.14,19.7-4.61,19.41-6.53-.59-4-50.25-2.27-50.53,1.79C775.68,953.73,791.36,958.27,807,956.17Z"/><rect class="cls-37" x="1462.19" y="1549.17" width="108.93" height="60.31"/></g></svg>