<?xml version="1.0" standalone="no"?>
<!DOCTYPE svg PUBLIC "-//W3C//DTD SVG 20010904//EN"
 "http://www.w3.org/TR/2001/REC-SVG-20010904/DTD/svg10.dtd">
<svg version="1.0" xmlns="http://www.w3.org/2000/svg"
 width="1000.000000pt" height="454.000000pt" viewBox="0 0 1000.000000 454.000000"
 preserveAspectRatio="xMidYMid meet">

<g transform="translate(0.000000,454.000000) scale(0.100000,-0.100000)"
fill="#000000" stroke="none">
<path d="M1145 3935 c208 -567 304 -983 318 -1370 5 -126 3 -129 -9 -17 l-5
52 -586 -2 -585 -3 -44 -105 c-169 -401 -252 -792 -224 -1062 26 -259 102
-434 257 -590 54 -55 199 -168 216 -168 2 0 2 56 -1 125 -6 154 10 280 49 399
61 185 165 337 304 443 77 59 276 163 312 163 40 0 205 40 312 76 336 112 518
286 546 523 l6 54 -117 211 c-320 575 -780 1357 -749 1271z m312 -1617 c-2
-13 -4 -3 -4 22 0 25 2 35 4 23 2 -13 2 -33 0 -45z m-10 -70 c-3 -7 -5 -2 -5
12 0 14 2 19 5 13 2 -7 2 -19 0 -25z"/>
<path d="M1990 1908 c-7 -29 -26 -96 -42 -148 -163 -517 -448 -873 -864 -1079
-105 -52 -276 -111 -322 -111 -25 -1 -26 -1 -7 -12 34 -20 480 -16 595 5 302
56 504 167 646 357 140 187 202 452 183 787 -10 183 -4 173 -101 173 l-81 0 7
40 c9 57 0 49 -14 -12z"/>
<path d="M1080 1140 l-515 -5 -13 -55 c-15 -63 -19 -354 -4 -410 8 -34 10 -35
50 -33 105 5 348 81 519 163 141 67 244 134 358 230 66 56 141 127 124 118 -2
-2 -236 -5 -519 -8z"/>
</g>
</svg>
