<?xml version="1.0" standalone="no"?>
<!DOCTYPE svg PUBLIC "-//W3C//DTD SVG 20010904//EN"
 "http://www.w3.org/TR/2001/REC-SVG-20010904/DTD/svg10.dtd">
<svg version="1.0" xmlns="http://www.w3.org/2000/svg"
 width="1000.000000pt" height="454.000000pt" viewBox="0 0 1000.000000 454.000000"
 preserveAspectRatio="xMidYMid meet">
<metadata>
Created by potrace 1.16, written by Peter Selinger 2001-2019
</metadata>
<g transform="translate(0.000000,454.000000) scale(0.100000,-0.100000)"
fill="#000000" stroke="none">
<path d="M1130 3975 c0 -2 13 -37 29 -77 16 -40 51 -143 79 -228 146 -447 213
-777 225 -1105 5 -126 3 -129 -9 -17 l-5 52 -591 -2 -590 -3 -44 -105 c-102
-238 -187 -535 -215 -744 -17 -134 -7 -401 19 -499 61 -224 206 -426 394 -547
76 -50 91 -51 76 -9 -18 53 -4 340 22 437 97 365 347 604 707 677 466 95 748
301 784 573 8 65 7 69 -28 137 -101 198 -477 855 -675 1183 -72 119 -140 232
-150 250 -18 29 -28 39 -28 27z"/>
<path d="M1985 1888 c-31 -128 -94 -299 -156 -427 -143 -290 -331 -512 -574
-675 -138 -94 -381 -196 -502 -213 -24 -3 -43 -9 -43 -13 0 -23 474 -28 620
-5 176 26 356 90 467 166 70 48 179 155 223 219 78 115 130 251 155 404 15 94
19 386 7 481 l-7 50 -89 3 -88 3 6 39 c10 64 0 46 -19 -32z"/>
<path d="M1075 1140 l-520 -5 -13 -55 c-17 -72 -19 -328 -3 -402 15 -69 12
-69 161 -33 314 76 575 202 781 378 42 36 86 79 98 96 13 17 21 30 19 29 -2
-2 -237 -5 -523 -8z"/>
</g>
</svg>
