<svg xmlns="http://www.w3.org/2000/svg" xmlns:xlink="http://www.w3.org/1999/xlink" viewBox="0 0 2000 2000"><defs><style>.cls-1{fill:none;}.cls-2{clip-path:url(#clip-path);}.cls-3{fill:#fff;}.cls-4{fill:#ff9e96;}.cls-5{fill:#4f3933;}.cls-6{fill:#7d5a50;}.cls-7{fill:#f5e2dd;}.cls-8{fill:#f2766d;}.cls-9{fill:#ffbd9e;}.cls-10{fill:#fff1ed;}.cls-11{fill:#ffdec4;}.cls-12{fill:#5d7ec2;}.cls-13{fill:#ffc97d;}.cls-14{fill:#4868ab;}</style><clipPath id="clip-path"><rect class="cls-1" x="-165.12" y="-191.93" width="2357.22" height="2357.12"/></clipPath></defs><title>Mesa de trabajo 2</title><g id="Layer_2" data-name="Layer 2"><g class="cls-2"><polygon class="cls-3" points="2192.1 2165.19 -165.26 2165.19 -165.26 -192.17 2192.1 -192.17 2192.1 2165.19 2192.1 2165.19"/></g><path class="cls-4" d="M1450.36,63.09c-1.62-16.31-7.32-31.91-22.34-39.24-12.78-6.25-27-3.12-40.41-2.63-14.12.51-28.87,1.47-42.16,7.17s-22,17.67-23.35,33.49c-1.39,16-5.65,31.52-8.41,47.29.28-1.62-33.8,1.5-36.74,2.26-11.79,3-24.71,9.42-31.47,21.06-8.42,14.47-7.86,37.08-7.77,53.66.22,39.78-.51,79.55,0,119.33.49,39.26-1.17,78.54,1.39,117.78a48.72,48.72,0,0,0,26.78,40.23,38.13,38.13,0,0,0,21.35,3.87c6.86-.92,12.71-5.68,19-8.43,10.06-4.37,21.22-5.6,30.86-11.1,9.17-5.23,11-15.13,18.69-21.27,2.3-1.83,5.11-2.68,7.85-3.5,23.26-7,48.74,5.06,67.26-17.13,11.51-13.8,11.34-32.69,12.75-50.22,2.4-29.74,3.56-59.61,4.81-89.43q3.13-76.24,2.78-152.58-.06-20.61-.39-41.2c0-3.13-.21-6.28-.51-9.41Z"/><path class="cls-5" d="M1441.22,271c-3.12,1.24-.79,5.9,2.31,4.67,12.51-4.94,11.58,17.23,11.06,22.42-.82,8-2.3,14.4-11.7,18-9.06,3.48-21.66,3.29-31.2,4.62l-69.09,9.63a2.6,2.6,0,0,0-2.07,2.38L1339.35,362c-.13,3.34,5.07,3.71,5.21.35.24-6.15-.52-13.46.78-19.47,1.68-7.87,2.42-7.94,10.64-9.08l37-5.16,34.55-4.81c7.26-1,16.69-1,23-5.4,13.84-9.56,14.56-56.82-9.32-47.37Z"/><path class="cls-6" d="M1354.58,364.08c1-16.74-25-18.56-26-1.78q-2.73,47.28-5.49,94.56c-1,16.73,25,18.55,26,1.77q2.73-47.28,5.48-94.55Z"/><path class="cls-7" d="M1429.23,305.82c-46.57,4-93.42,5.9-140.18,4.33-22.21-.74-54.88-3.65-54.84-33.38a27.61,27.61,0,0,1,3-13.27c8.46-16,33.35-16.28,50.75-16.24,49.63.1,99.3.56,148.92.87,4.6,0,8.93,13.94,8.89,15.92,0,1.41,0,2.77-.07,4.17,0,.53,0,1.1,0,1.68,0,1.72-.08,3.44-.1,5.21,0,4.49-.29,9-.2,13.58.38,18.11-14.85,17-16.16,17.13Z"/><path class="cls-8" d="M1445.7,268.22c-32.69,4.83-64.9,5.29-97.67-4.58-16.23.46-30.54,4.09-45.92,10.51-6.44,2.69-12.81,6.28-19.87,7.11-10.64,1.25-30.17-11.89-45-17.76,8.46-16,33.35-16.28,50.75-16.24,49.63.1,99.3.56,148.92.87,4.6,0,8.89,3.28,8.89,15.92,0,1.41,0,2.77-.07,4.17Z"/><path class="cls-9" d="M1243.6,645.56s5.67-27.6,5-32.23.48-29.9,10.54-58.26S1301,429.8,1310.4,430.38s12.54,16.88,11,32.9-11.48,111.34-14.82,129.47A234.52,234.52,0,0,1,1289,647.26l-45.35-1.7Z"/><path class="cls-9" d="M1305,435.88s4.36-24.67,23.88-36.63c7.45-4.57,30.29,5,25.29,19.46s-17.17,29.91-25.29,34.53a121,121,0,0,1-16,7.53L1305,435.88Z"/><path class="cls-5" d="M720.5,1232.19c-13.45-16.68-33.32-25.44-54.65-25.31-48.6.31-80.93,41.51-92.73,84.93-.88,3.25,4.15,4.64,5,1.4,11.18-41.15,41.38-80.83,87.7-81.12,55-.34,69,54.19,75,98.4.45,3.31,5.47,1.89,5-1.38-3.69-26.83-7.9-55.18-25.42-76.92Z"/><path class="cls-7" d="M751.94,1303.25c-.89,8.8-1.82,17.7-2.76,26.55a8.62,8.62,0,0,1-.1,1.14c-3.83,37.09-7.77,74.23-11.6,111.32a13.4,13.4,0,0,1-4.28,8.65,12.61,12.61,0,0,1-6.65,4.82c-48.1,16.53-97.69,14.57-144.57-3.64a13.46,13.46,0,0,1-9.34-4.12c-3.79-2.61-4.68-70.3-5.27-119.14,0-1.14,0-2.22,0-3.3-.19-9.25-.29-17.71-.39-24.84-.15-9.1,6.74-13.08,13.53-12.4a12.17,12.17,0,0,1,2.75-.59,645.46,645.46,0,0,1,154.66,3.15,1.19,1.19,0,0,0,.44.09c7.18-.93,14.61,3.1,13.63,12.31Z"/><path class="cls-8" d="M751.94,1303.25c-.89,8.8-1.82,17.7-2.76,26.55-9.34,8.17-21.25,12.31-36,8.37-14.07-3.73-26.67-29.66-38.47-20.46-9.59,7.43-11.56,21.1-27.75,18-14-2.71-19.18-16.82-22.87-28.68-.79-2.6-1.87-13-4.18-14.07-5.51-2.45-11.36,7.92-13.68,10.88-5,6.44-7.23,13.38-14.36,18.15-9.49,6.34-17.71,6.73-24.5,3.59-.19-9.25-.29-17.71-.39-24.84-.15-9.1,6.74-13.08,13.53-12.4a12.17,12.17,0,0,1,2.75-.59,645.46,645.46,0,0,1,154.66,3.15,1.19,1.19,0,0,0,.44.09c7.18-.93,14.61,3.1,13.63,12.31Z"/><path class="cls-9" d="M731.55,979.09s-12.17,25.42-15.54,28.68-17.69,24.11-26.82,52.79-42.36,125.11-34.53,130.32,20.2-5.87,28.67-19.55,63.86-93.83,66.47-112.08,18.9-54.09,18.9-54.09l-37.15-26.07Z"/><path class="cls-9" d="M792,1671.61s-45,151.87-34.19,163,11.12,10.3,24.78-2.39,75.11-127.43,75.11-127.43L792,1671.61Z"/><path class="cls-10" d="M745.12,1839.31s14.65-66.68,16.52-72,21.53,6.21,37.21,10.75,17.87,8.12,18.34,13.34-26.49,50.54-34.48,56.27-20.38,6.89-25.57,4.62-12-13-12-13Z"/><path class="cls-5" d="M750.71,1814.11s9.4-1.77,22.23,3.67,22.57,13.67,20.8,16.23,8.17,54.7,13.08,65.64,3,20.38-4.2,22.46-84.5-43.93-81.43-55.28,29.52-52.72,29.52-52.72Z"/><path class="cls-9" d="M1029.14,1720.68s7.82,158.21,21.73,165.13,13.89,6,22.58-10.47,28.68-145.1,28.68-145.1l-73-9.56Z"/><path class="cls-9" d="M986.91,507.74s26,7.91,34.6,27.3,21.91,36,23.19,98c.37,17.7-8.67,29.85-17.38,31.24-6.44,1-22.91-.6-23.68,10.29s.28,40.79.28,40.79-14.47,32.22-24.8,36.67-39.56-8.71-42.18-14.12,6.08-56.35.12-73-21.72-83.25-19-100,17.54-50.36,25.82-55,43-2.15,43-2.15Z"/><path class="cls-10" d="M1295,646.75c0,12.15-12.16,41.7-37.33,54.74s-58.24,29.87-73,51.4-32.16,53.75-27.84,88.47c1,8.24,2.09,16.68,3,25.34V867a13.49,13.49,0,0,1,.16,1.41v.1c0,.36,0,.78.1,1.3q.7,7,1.1,14.08c.1,1,.15,2.08.26,3.23a4.47,4.47,0,0,0,0,.73,299.36,299.36,0,0,1-3.74,70c-7.83,44.32-199,112.92-219,95.56s-32.17-88.62-53-108.59a75.89,75.89,0,0,0-6.88-5.94c-15.43-11.63-20.86-2.71-27,4.17-6.93,7.82-27.78,40-43.42,58.23s-35.61,28.67-51.25,27-36.49-26.06-40.87-40,37.38-70.38,41.7-79.92,43.48-102.55,70.38-126A151.35,151.35,0,0,1,842.07,772c8.76-6,19.34-12.46,30.34-18.76,32.43-18.67,68.09-36.13,68.09-36.13s38.21-9.13,72.15-17.93c14.75-3.81,28.67-7.56,38.37-10.48,5-1.52,8.91-2.82,11.16-3.76,16.47-6.93,108.59-38.73,131.16-55s58.23-29.24,68.66-24,33,28.67,33,40.82Z"/><path class="cls-11" d="M976.48,480c-2.88-1.53-58.83-17.37-79.61,5.15s-36.14,61.73-38.4,71.24-59.81,23.26-65.73,45.3S808,638.83,808,638.83s-16.76,28.16-3.39,50.78,46.58,23.82,46.58,23.82,15.12,23.7,37.46,28.35,42-16.11,42-16.11,12.71,5.7,30.94-3.35,22.86-34.08,22.86-34.08,6.3-116.4,14.24-127.24,25.32-10.71,28.62-27.34S1015.12,500.6,976.48,480Z"/><path class="cls-11" d="M910.46,498.44s16.93-26.11,10-41.83-25.44-14.11-39.3-9.37-19.91,18.91-19.57,25.92,2.36,14.09,7.58,18.79c18.2,16.39,41.33,6.49,41.33,6.49Z"/><path class="cls-9" d="M995.11,573.1s-8.33,2.84-13,10.44c-5.57,9.08-3.73,17.7-.88,25.09a67.82,67.82,0,0,0,7.92,14s15.12-38.07,14.79-41.33-8.83-8.16-8.83-8.16Z"/><path class="cls-12" d="M1178.59,1466.53c-7.82,45.63-10.43,148.58-10.43,185.08s-28.67,80.81-48.22,88.62-88.63,7.82-114.43,0-15.9-78.19-14.29-101.66,28.36-147.28,27.06-182.46c-.94-25.54,3.6-99.31,6.83-134.19-8.28,41.81-33.42,140.91-46.61,169.37-16.31,35.2-34.51,153.8-49.84,183.77s-53.74,43-74.6,43-57.34-13-83.41-36.49-14.34-46.92,0-84.71,22.16-97.75,31.28-138.15,33.89-89.94,59.59-129c23-34.88,10.42-98.74,14-151.91a178.18,178.18,0,0,1,2-18.83c9.13-56,45.62-87.32,50.83-102.8,3.65-10.8-25.65-57.92-49.47-117.3-10.38-25.76-19.71-53.91-24.82-82.32-7.77-43.06-10.89-69-12-84.51,8.76-6,19.34-12.46,30.34-18.76,8.45,42.48,10.74,122.87,49.69,162,12.19,12.25,67-5.21,83.41-16.52s3.65-181.58,6.25-196.33a15.72,15.72,0,0,1,.89-3.18c14.75-3.81,28.67-7.56,38.37-10.48,1.87,11.83-1.14,35.66,2.45,64.17,5.16,41,7.36,117.3,29.93,120.38,22.93,3.07,76.42-6.57,76.42-6.57V867a13.49,13.49,0,0,1,.16,1.41v.1c0,.36,0,.78.1,1.3.21,2.87.58,7.77,1.1,14.08.1,1,.15,2.08.26,3.23a4.47,4.47,0,0,0,0,.73c3.25,41.81,10.18,131.79,10.18,137.79,0,7.81,18.66,85.13,25.17,143.57s-10.43,251.75-18.24,297.36Z"/><path class="cls-13" d="M982.57,1035.19c-.08-.14-.18-.26-.26-.4a9.34,9.34,0,0,0-1.57-1.87,8.47,8.47,0,0,0-1.46-1.1,9.36,9.36,0,0,0-1.17-.63,10.46,10.46,0,0,0-2-.58,9.71,9.71,0,0,0-1.23-.36,12.46,12.46,0,0,0-4.47.36,10.28,10.28,0,0,0-1.67.5,9,9,0,0,0-1,.42,10.24,10.24,0,0,0-2.1,1.4c-.22.19-.43.38-.63.59s-.36.31-.52.48c-7.62,8.35,3,22.19,13.07,17.22a11.56,11.56,0,0,0,5-16Z"/><path class="cls-13" d="M1062.72,1026.09c-.08-.14-.17-.26-.26-.4a9.57,9.57,0,0,0-1.56-1.87,8.53,8.53,0,0,0-1.47-1.1,9.23,9.23,0,0,0-1.16-.63,10.68,10.68,0,0,0-2-.58,9.87,9.87,0,0,0-1.24-.36,12.71,12.71,0,0,0-4.47.36,9.93,9.93,0,0,0-1.66.51,7.41,7.41,0,0,0-1,.41,12.11,12.11,0,0,0-2.09,1.4c-.23.19-.43.39-.64.59s-.35.31-.52.48c-7.61,8.35,3,22.19,13.08,17.22a11.55,11.55,0,0,0,4.94-16Z"/><path class="cls-10" d="M1040.43,1894.46s-8.25-67.77-8.25-73.42,22.38-1.27,38.66-2.18,19.56,1.75,21.73,6.52-8.25,56.46-13.9,64.51-17,13.26-22.59,12.82-15.65-8.25-15.65-8.25Z"/><path class="cls-5" d="M1037.37,1868.83s8.27-4.78,22.18-3.92,25.83,5.44,25,8.44,25.83,48.92,34.09,57.6,9.56,18.25,3.47,22.59-94.28-13.46-95.14-25.19,10.4-59.52,10.4-59.52Z"/><path class="cls-9" d="M653.71,1183.26s-11.44,22.29-3.13,43.61c3.18,8.14,27.17,14.32,31.92-.21s4.41-34.21.73-42.79a120.57,120.57,0,0,0-8.2-15.67l-21.32,15.06Z"/><path class="cls-14" d="M1025.11,1321.92c-8.28,41.81-33.42,140.91-46.61,169.37-16.31,35.2-34.51,153.8-49.84,183.77s-53.74,43-74.6,43-57.34-13-83.41-36.49-14.34-46.92,0-84.71,22.16-97.75,31.28-138.15,33.89-89.94,59.59-129c23-34.88,10.42-98.74,14-151.91a219.55,219.55,0,0,0,42.28,29.09c37.17,19.69,71.42,27.26,87.74,45.51s19.6,69.54,19.6,69.54Z"/></g></svg>