<svg xmlns="http://www.w3.org/2000/svg" viewBox="0 0 2000 2000"><defs><style>.cls-1{fill:#edb0a4;}.cls-2{fill:#f7b8ab;}.cls-3{fill:#3c5475;}.cls-4{fill:#456187;}.cls-5{fill:#f3e3c7;}.cls-30,.cls-6{fill:#3b7ada;}.cls-6{opacity:0.12;}.cls-7{fill:#8a9ca5;}.cls-8{fill:#212934;}.cls-9{fill:#65a0e0;}.cls-10{fill:#6dadf2;}.cls-11{fill:#ffc8bd;}.cls-12{fill:#b94f43;}.cls-13,.cls-14{fill:#061c3b;}.cls-13,.cls-36{opacity:0.17;}.cls-14{opacity:0.26;}.cls-15{fill:#d4e6ff;}.cls-16{fill:#192138;}.cls-17,.cls-21,.cls-31,.cls-36{fill:#fff;}.cls-18{fill:#1e2742;}.cls-19{fill:#658dc4;}.cls-20{fill:#313654;}.cls-21{opacity:0.1;}.cls-22{fill:#f7beb2;}.cls-23{fill:#85bfff;}.cls-24{fill:#d0eff7;}.cls-25{fill:#292c3d;opacity:0.21;}.cls-26{fill:#5c6687;}.cls-27{fill:#3c476b;}.cls-28{fill:#424c6b;}.cls-29{fill:#bfd3ff;opacity:0.27;}.cls-31{opacity:0.14;}.cls-32,.cls-35{fill:#3268ba;}.cls-32{opacity:0.63;}.cls-33{fill:#5f7c87;}.cls-34{fill:#1a2029;}</style></defs><title>Mesa de trabajo 2</title><g id="Layer_2" data-name="Layer 2"><path class="cls-1" d="M1152.4,826.44c.84,8.24,18.37,12.77,31.68,16.2a132.4,132.4,0,0,0,48.25,3.24l45.2-40.14c.39-.17.78-.45,1.12-.62,2-1,3.44-1.71,3.76-1.86,2.55-1.19,9.37-4.67,12.36-6.14,7.94-3.91,79.57-38.51,146-73.2,11.84-6.18,22.25-11.69,31.8-17.2,1.79-1,3.54-2,5.27-3.06q25.34-31.17,50.72-62.36l-45.45-37.39q-27,20.93-54,41.86-79.8,61.85-159.63,123.77l-4.66,2-.91.34h0c-.22.11-.43.2-.63.28s-.43.2-.64.28c-1.71.22-3.37.46-5,.72h0a169.8,169.8,0,0,0-40,11.16c-3.62,1.52-6.91,3.09-12.14,5.75C1170.22,808.05,1151.5,817.59,1152.4,826.44Z"/><path class="cls-1" d="M1208.39,790c-29.44.44-61.39-5.58-61.24-10.32.17-5.16,38.45-8.2,59.92-8.8a352.51,352.51,0,0,1,51.66,2.36c1.56,1.14,3.43,2.88,3.27,4.8C1261.39,785.54,1230.64,789.71,1208.39,790Z"/><path class="cls-1" d="M1492.76,1021.36c-7.5,79.32-7.87,128.26-8.19,198.3-.36,78.34-5.91,95.67,1,152.59.52,4.31,13.2,105,36.39,106.07,8.59.39,11.93-13.2,39.23-35,4.74-3.78,9.08-6.91,12.86-9.47,7.5-5.08,13.21-8.33,13.92-8.75,19.41-11.44,38.49-134.09,49.73-189.66,6.5-32.16,18.93-84.19,18.93-84.19h0a1072.08,1072.08,0,0,0-.79-165.71c-15.42-9.07-98.57-56.68-139.84-24.61C1497.46,975.37,1494.77,1000.09,1492.76,1021.36Z"/><path class="cls-2" d="M1618.76,974.26c-11.58,78.82-14.47,127.69-18.4,197.61-4.4,78.22-10.84,95.24-6.89,152.44.3,4.33,7.77,105.56,30.87,107.81,8.56.83,12.6-12.57,41-32.9,4.93-3.53,9.42-6.42,13.32-8.79,7.76-4.69,13.63-7.64,14.36-8,20-10.42,45.36-131.93,59.44-186.84,8.15-31.79,23.25-83.1,23.25-83.1h0a1071.68,1071.68,0,0,0,7.76-165.53c-14.93-9.85-95.51-61.69-138.38-31.8C1625.83,928.57,1621.87,953.12,1618.76,974.26Z"/><path class="cls-1" d="M1896.33,1855.21c-13.24,9.3-28,6.91-31.73,6.07a45.43,45.43,0,0,1-29.18-21.51c-16.79-18.6-34.51-38.25-52.82-58.63l-5.31-5.94c-88.36-98.47-189.81-212.73-270.83-302.45-1-1.07-2-2.16-2.93-3.25-1.31-1.9-2.61-3.86-3.9-5.77a94.68,94.68,0,0,1-8.41-32.67,84.47,84.47,0,0,1,7.08-41c.16-.32.31-.64.49-1a67.72,67.72,0,0,1,15.78-21.64c13.13-12,31-18.28,49.71-18.47a88.75,88.75,0,0,1,19.69,2,92.62,92.62,0,0,1,38.74,18.64,97.26,97.26,0,0,1,13.34,13.18c.72.87,1.26,1.54,1.46,1.8,12.88,16.32,23.63,30.06,32.52,41.54,29,37.37,38.33,50.5,38.33,50.5,33,46.37,60.86,104.8,74.66,135.21q48.43,76.41,97.47,152.44,16.24,25.18,32.54,50.31C1915.12,1830.72,1908.78,1846.47,1896.33,1855.21Z"/><path class="cls-3" d="M1494.41,952.09l-.9,21.06q-8.35,83-15.66,167.94-12.67,147.63-21.24,290.17l344,390.64,97.68-27.29L1655.53,1360.8c31-96.51,54.23-223.62,31.6-366.29-3.16-19.9-7-39.06-11.49-57.46Z"/><path class="cls-2" d="M1619.56,1926c-16.31-2.35-25.57-14.59-27.35-17.19a45.42,45.42,0,0,1-6.71-35.63c.39-25.05.82-51.51,1.3-78.9,0-2.65.11-5.31.16-8,2.43-132.27,6-285,7.88-405.91,0-1.44,0-2.93.07-4.36.33-2.29.72-4.62,1.08-6.89a94.6,94.6,0,0,1,16.11-29.64,84.3,84.3,0,0,1,33.12-25.18c.33-.13.66-.27,1-.39a68,68,0,0,1,26.3-5.09c17.76.2,35.11,7.72,49,20.37a87.87,87.87,0,0,1,13.07,14.84,92.6,92.6,0,0,1,15.66,40,97,97,0,0,1,.78,18.73c-.06,1.13-.13,2-.15,2.32-1.7,20.72-3.2,38.1-4.51,52.56-4.26,47.09-6.37,63.08-6.37,63.08-7.47,56.4-26.87,118.17-37.48,149.83-12.19,56.88-23.18,116.24-32.54,178q-4.32,28.49-8,56.41C1652.25,1920,1635.66,1928.28,1619.56,1926Z"/><path class="cls-4" d="M1602,983.74q-14.34,231.29-19.39,480.49-4,214.33,0,415.85L1671,1893c24.4-80.45,43.75-148.81,58.18-201.46,10.24-37.37,15.44-56.42,19.39-74.34,18.66-84.64,23.21-157.41,25.86-202.54,1.22-20.81,1.83-38,2.15-49.56,29.48-66.27,78.46-205.11,28-349a381.62,381.62,0,0,0-23.7-53.87Z"/><rect class="cls-5" x="172.1" y="1786.06" width="930.19" height="105.29" transform="translate(1274.38 3677.41) rotate(-180)"/><rect class="cls-6" x="276.31" y="1786.06" width="825.97" height="105.29" transform="translate(1378.6 3677.41) rotate(-180)"/><rect class="cls-7" x="90.02" y="1891.35" width="506.89" height="103.15" transform="translate(686.93 3885.85) rotate(-180)"/><rect class="cls-8" x="90.02" y="1891.35" width="506.89" height="23.04" transform="translate(686.93 3805.74) rotate(-180)"/><path class="cls-1" d="M1429.12,679.31c7,16,23.93,26.49,43.44,27.41,1.79-1,3.54-2,5.27-3.06q25.34-31.17,50.72-62.36,53.55-65.88,107.14-131.77-12.76-57.37-25.54-114.74l-10.8,1.08a145.16,145.16,0,0,0-15.12,11.34,150.62,150.62,0,0,0-31.32,37.8c-13.86,22.92-60.69,97.77-123.77,200.76l-1.45,2.33C1426.33,652.68,1423.14,665.68,1429.12,679.31Z"/><path class="cls-9" d="M1500,524.93l86.64,56.52,50.74-75c38.32-12.43,58.21-48.23,51.63-73.88-7.62-29.66-52.73-53.71-97.21-33.48a179.05,179.05,0,0,0-21.6,18.9c-14.16,14.57-22.13,27.67-28.62,38.34C1528.05,478.62,1514.61,500.69,1500,524.93Z"/><path class="cls-1" d="M1603.2,435.28c9.09-16.27,15.24-29.36,17.8-36.31a102.12,102.12,0,0,0,3.23-10.56c.35-1.51.67-3.06,1-4.64,0,0,.42-2.38.72-4.87.41-3.51-2.38-27.69-8.74-60.53a147.84,147.84,0,0,0,95.72-40.25c0,3,.15,7.39.47,12.75,1.26,20.38,4.54,34.79,9.48,56.61q5.67,25,11.33,50l11.41,8.2a78.79,78.79,0,0,1-14.32,22.94c-16.93,18.77-38.34,23.62-52,26.51-29.7,6.3-71.49,4.49-76.57-11.11A13.5,13.5,0,0,1,1603.2,435.28Z"/><path class="cls-10" d="M1494.05,956.41a.38.38,0,0,0,.13,0,558.8,558.8,0,0,0,113.27,32.36,563.79,563.79,0,0,0,189,.6V957.57c-.17-2.42-.32-4.81-.45-7.19-5.49-93.16,2-167.9,11-222.38,17.13-103.94,53.72-218.14-7.74-294.37-.08-.11-.17-.19-.21-.26-.48-.82-1-1.58-1.51-2.35a63.62,63.62,0,0,0-13.89-14.13s-1.19-.89-2.47-1.73c-9.09-6.2-35.55-19.29-46.37-24.58l-1.9-.95c-.5.43-1,.84-1.47,1.25-18,15.27-35.3,26.83-50.59,34.33-23.22,11.47-41.86,13.67-51.45,5.57-3.33-2.81-10.8-11.28-6.89-37.11a175.08,175.08,0,0,0-48.54,37.3c-62.75,69.28-36.53,151-61.28,339.24-1.88,14.21-6.63,55.43-12.12,112.75C1497.66,912.9,1495.52,938.09,1494.05,956.41Z"/><path class="cls-11" d="M1557.78,117.94a158.7,158.7,0,0,0-13.83,27.3c-30.18,76-16,186.86,45.8,185.56,91.43-1.9,129.22-27.52,159.09-94.66,27.9-62.76,21.24-152.54-35.71-181.73a88.73,88.73,0,0,0-20.7-7.2,95.76,95.76,0,0,0-19.32-1.61C1654.94,46.1,1594.38,60.79,1557.78,117.94Z"/><path class="cls-11" d="M1532.66,191.33s-13.66,28.18-20.94,30-4.32,10-4.32,10l22.45,9.91Z"/><path class="cls-12" d="M1575.55,162a261,261,0,0,1-63.07-47.22c4.26-5.3,10.56-13.22,18-23,26.23-34.54,27.34-40.52,37-48.61,20.13-16.89,46.06-15.95,66.81-16.45,36.35-.87,65.55,14,82.44,25,15.27,6.35,47.14,22.35,63.15,56,34.72,73-32.37,171.85-62.75,168.39-14.83-1.68-28-27.48-45.71-62-5.13-10-8.79-18.51-11.08-24.13A261.23,261.23,0,0,1,1575.55,162Z"/><path class="cls-11" d="M1709.68,195.35c4.38,8.88,3.67,18.92-12.15,26.71s-32.18,6.91-36.56-2,4.9-22.4,20.71-30.2S1705.3,186.47,1709.68,195.35Z"/><path class="cls-10" d="M1791.23,175.79l-.82,1.63L1548.18,58.64c.43-.71.87-1.41,1.31-2.11a95.36,95.36,0,0,1,8.65-14.3,96.87,96.87,0,0,1,121.12-29.74L1747.17,46a96.91,96.91,0,0,1,44.06,129.78Z"/><path class="cls-4" d="M1790.49,177.33,1781.4,196,1538.6,77.56l-98.11-47.84.18-.14a35.66,35.66,0,0,1,38.94-4.89l68.49,33.64Q1669.3,117.81,1790.49,177.33Z"/><path class="cls-13" d="M1791.23,175.79l-.82,1.63L1548.23,58.52l1.26-2a95.36,95.36,0,0,1,8.65-14.3c31,28,61.13,38.23,77.73,42.39,14.2,3.56,73.53,18.42,92.21-9.19,8-11.82,5.76-27.29,3.1-37.37a129.59,129.59,0,0,1,33.74,19.69A102.6,102.6,0,0,1,1782,74.49c24.11,30.67,18.74,69.05,18.08,73.31A97.44,97.44,0,0,1,1791.23,175.79Z"/><path class="cls-14" d="M1790.49,177.33,1781.4,196,1538.6,77.56q4.74-9.65,9.5-19.23Q1669.3,117.81,1790.49,177.33Z"/><path class="cls-15" d="M1690.75,1924.72c.78,2.46,1.56,5,2.32,7.47q1.61,5.3,3.06,10.44a825.76,825.76,0,0,0,227.71-52.85q-1.48-6.51-3-13l1.32-21Z"/><path class="cls-16" d="M1920.73,1877.31c-181.16,57.5-226.21,58.55-231.28,47.21-4-9,16.3-30.64,30-41.38,14.89-11.69,24.13-12.26,36.09-17.46a71.61,71.61,0,0,0,6.53-3.24c1.72-1,3.51-2,5.37-3.27s3.82-2.63,5.87-4.22c.86-.66,1.74-1.35,2.66-2.1s1.8-1.5,2.72-2.28c1.74-1.5,3.58-3.07,5.51-4.69,1.55-1.29,3.19-2.58,4.93-3.9s3.75-2.75,5.89-4.15c1.86-1.22,3.88-2.44,6-3.62,1.82-1,3.8-2,5.9-3,.22-.09.41-.21.63-.3,2.35-1.08,4.6-2,6.73-2.83,2.56-1,4.94-1.79,7.09-2.45,1.9-.57,3.59-1,5.08-1.41l.1-3.87a184.79,184.79,0,0,0,86.09-6.31,86.29,86.29,0,0,1,8.07,63.28Z"/><path class="cls-16" d="M1863.7,1791.36c2.6,3.8,2.37,7.77,1.92,15.53-.46,8-.88,15.19-6,22-1.73,2.32-7.15,9.58-15.91,10.43-9,.86-18.3-5.32-23.2-15.43a78.79,78.79,0,0,1-.85-16.67c.58-10.39,1-17.4,6-21.52s11.57-3.15,19.5-2.08C1852.38,1784.62,1859.77,1785.61,1863.7,1791.36Z"/><path class="cls-17" d="M1808.42,1863.87a3.63,3.63,0,0,1-5-.93l-14.29-21c1.83-1.38,3.75-2.75,5.89-4.15l14.36,21A3.62,3.62,0,0,1,1808.42,1863.87Z"/><path class="cls-17" d="M1822.42,1859.06a3.61,3.61,0,0,1-5-.93L1801,1834.21c1.82-1,3.8-2,5.9-3,.22-.09.41-.21.63-.3l15.78,23.14A3.6,3.6,0,0,1,1822.42,1859.06Z"/><path class="cls-17" d="M1836.54,1854.19a3.62,3.62,0,0,1-5-.93l-17.22-25.19c2.56-1,4.94-1.79,7.09-2.45l16.08,23.58A3.56,3.56,0,0,1,1836.54,1854.19Z"/><path class="cls-17" d="M1796.14,1869.75a3.65,3.65,0,0,1-5-.93l-12.44-18.25c1.74-1.5,3.58-3.07,5.51-4.69l12.89,18.85A3.61,3.61,0,0,1,1796.14,1869.75Z"/><path class="cls-17" d="M1782.15,1874.28a3.62,3.62,0,0,1-5-.93l-9.7-14.18q2.79-1.83,5.87-4.22l9.79,14.31A3.6,3.6,0,0,1,1782.15,1874.28Z"/><path class="cls-17" d="M1768.19,1877.8a3.63,3.63,0,0,1-5-.94l-7.64-11.18a71.61,71.61,0,0,0,6.53-3.24l7.07,10.33A3.63,3.63,0,0,1,1768.19,1877.8Z"/><path class="cls-15" d="M1426.83,1983.11q.64,3.83,1.24,7.74.86,5.45,1.56,10.76a825.72,825.72,0,0,0,232.89-20.27q-.57-6.66-1.13-13.3,2.13-10.29,4.25-20.57Z"/><path class="cls-18" d="M1661.19,1968.55c-187.45,31.43-232.2,26.12-235.62,14.19-2.73-9.47,20.45-28,35.51-36.75,16.38-9.48,25.61-8.74,38.19-12.21a69.58,69.58,0,0,0,6.91-2.29c1.84-.69,3.77-1.5,5.79-2.48s4.14-2.06,6.4-3.35c.94-.53,1.91-1.09,2.92-1.7s2-1.23,3-1.88q2.89-1.86,6.11-3.87c1.72-1.06,3.53-2.1,5.43-3.16s4.11-2.2,6.42-3.28c2-1,4.18-1.87,6.49-2.74,2-.74,4-1.45,6.27-2.15.22-.05.43-.15.66-.2,2.48-.74,4.84-1.35,7.06-1.86,2.68-.61,5.14-1.08,7.36-1.42,2-.3,3.7-.51,5.24-.69l.64-3.82a184.47,184.47,0,0,0,86.12,5.87,86.3,86.3,0,0,1-.92,63.79Z"/><path class="cls-18" d="M1616.83,1875.43c2,4.13,1.25,8-.29,15.64-1.57,7.82-3,14.92-9,21-2,2-8.43,8.48-17.22,8.09-9-.41-17.37-7.85-20.79-18.54A78.27,78.27,0,0,1,1571,1885c2-10.2,3.41-17.08,8.94-20.46s11.89-1.49,19.6.68C1606.57,1867.17,1613.74,1869.18,1616.83,1875.43Z"/><path class="cls-17" d="M1551.9,1939.44a3.65,3.65,0,0,1-4.85-1.63l-11.2-22.76c2-1.11,4.11-2.2,6.42-3.28l11.26,22.83A3.62,3.62,0,0,1,1551.9,1939.44Z"/><path class="cls-17" d="M1566.43,1936.65a3.61,3.61,0,0,1-4.84-1.64l-12.83-26c2-.74,4-1.45,6.27-2.15.22-.05.43-.15.66-.2l12.37,25.12A3.62,3.62,0,0,1,1566.43,1936.65Z"/><path class="cls-17" d="M1581.1,1933.81a3.62,3.62,0,0,1-4.85-1.63l-13.5-27.36c2.68-.61,5.14-1.08,7.36-1.42l12.61,25.6A3.57,3.57,0,0,1,1581.1,1933.81Z"/><path class="cls-17" d="M1538.9,1943.53a3.65,3.65,0,0,1-4.84-1.63l-9.75-19.82q2.89-1.86,6.11-3.87l10.11,20.48A3.6,3.6,0,0,1,1538.9,1943.53Z"/><path class="cls-17" d="M1524.42,1946.05a3.63,3.63,0,0,1-4.85-1.63L1512,1929c2-1,4.14-2.06,6.4-3.35l7.68,15.55A3.62,3.62,0,0,1,1524.42,1946.05Z"/><path class="cls-17" d="M1510.1,1947.56a3.62,3.62,0,0,1-4.84-1.63l-6-12.15a69.58,69.58,0,0,0,6.91-2.29l5.55,11.23A3.61,3.61,0,0,1,1510.1,1947.56Z"/><path class="cls-19" d="M1673.34,981.25a183.48,183.48,0,0,0-2.16,32.4c1.59,71.85,45.33,124.4,67.32,147.24l-13.32-177.48Z"/><path class="cls-20" d="M1684.14,981.25a204.46,204.46,0,0,0-2.16,32.4c.87,67.4,35,118.57,56.16,144.72l-2.16-175Z"/><path class="cls-4" d="M1686.3,584.88l18,375.49a244,244,0,0,1-207.37-24.48q5.34-74.32,11.52-149.77,9.1-110.86,19.62-219.06Z"/><path class="cls-20" d="M1640.94,999.24a673,673,0,0,0,155.52-8.64V950.29l-.45.09c-65.25,9.33-115.85,10.12-147.88,8.55a775.61,775.61,0,0,1-152.28-23,102.19,102.19,0,0,0-2.16,11.52,103.43,103.43,0,0,0,0,26.28A673.56,673.56,0,0,0,1640.94,999.24Z"/><path class="cls-20" d="M1685.22,584.88l-24.84-2.7a990.27,990.27,0,0,1,50.22-128c10.2-21.48,20.72-41.64,31.32-60.48l27,10.8c-11.27,18.43-22.54,38.41-33.48,59.94A872.29,872.29,0,0,0,1685.22,584.88Z"/><path class="cls-20" d="M1625.1,389.39c-8.93,15.14-17.78,31.46-26.29,49a695.47,695.47,0,0,0-48.24,131.77l-23.4-2.52a597,597,0,0,1,48.6-130.69c7.3-14.22,14.86-27.53,22.5-40Z"/><path class="cls-21" d="M1661.82,612.6l-126-15.12-4.32,39.6L1660,653.64Z"/><path class="cls-22" d="M1656.52,764.2c22.54-118.1,45.48-202.15,61.07-253.73,8.51-28.14,21.94-70.11,53.77-79.12,16.81-4.75,38.7-.22,51,13.43,14.26,15.89,11.79,40,8.55,58.09-15.32,85.45-86.16,250-98.94,279.52Z"/><path class="cls-23" d="M1698.52,571.69l109.7,32.22c4-11.31,9.31-27.74,14.52-48,2.51-9.72,4.59-17.79,6.2-26.58,5.53-30.13,12.12-66-7.56-87.36a48.79,48.79,0,0,0-36.29-15.3c-21.9.66-36.75,18.31-43.34,26.14A88.14,88.14,0,0,0,1728,475.43C1713.43,509.17,1703.55,549.13,1698.52,571.69Z"/><path class="cls-5" d="M1101.19,1808.28c51.94-25.57,90.11-64.87,90.31-101.68,0-5.11,0-34.76-13.79-65.2-3.46-7.62-7-15.5-10.54-24.64-17.12-44.65-15.24-74-12.63-114.61,1.72-26.85,3.67-57.29.35-98.4-4.72-58.36-18.77-117.54-41.76-175.9l-20.1,7.92c22.21,56.38,35.78,113.48,40.33,169.72,3.2,39.55,1.3,69.16-.38,95.28-2.67,41.72-4.79,74.67,14,123.72,3.74,9.75,7.62,18.3,11,25.84,9.19,20.25,15.27,33.64,12.14,52.8-4.82,29.58-29.16,56.79-72.36,80.86Q1099.52,1796.14,1101.19,1808.28Z"/><rect class="cls-24" x="1133.48" y="831.47" width="21.29" height="547.74" transform="translate(1673.33 2605.59) rotate(-153.44)"/><rect class="cls-25" x="1134.04" y="829.09" width="10.65" height="547.74" transform="translate(1665.38 2598.95) rotate(-153.44)"/><rect class="cls-26" x="1002.4" y="1311.68" width="63.9" height="26.07" transform="translate(-613.04 1657.65) rotate(-63.44)"/><rect class="cls-27" x="1129.6" y="844.7" width="280.32" height="18.56" transform="translate(2023.73 2185.57) rotate(-153.44)"/><rect class="cls-28" x="1130.53" y="848.58" width="280.32" height="7.09" transform="translate(2026.31 2182.47) rotate(-153.44)"/><rect class="cls-29" x="1131.35" y="845.12" width="280.32" height="10.75" transform="translate(2028.6 2179.74) rotate(-153.44)"/><path class="cls-30" d="M172.1,1590.12v195.94h930.18V1125.47H636.77c-200.3,0-371,126.71-436.29,304.35q-4.69,12.81-8.66,26A464.46,464.46,0,0,0,172.1,1590.12Z"/><path class="cls-31" d="M172.1,1590.12v195.94h930.18V1125.47H636.77c-200.3,0-371,126.71-436.29,304.35q-4.69,12.81-8.66,26A464.46,464.46,0,0,0,172.1,1590.12Z"/><path class="cls-30" d="M276.31,1199.48h826a0,0,0,0,1,0,0v345.33A241.25,241.25,0,0,1,861,1786.06H276.31a0,0,0,0,1,0,0V1199.48A0,0,0,0,1,276.31,1199.48Z" transform="translate(1378.6 2985.54) rotate(-180)"/><rect class="cls-32" x="172.1" y="1687.58" width="930.19" height="98.47" transform="translate(1274.38 3473.64) rotate(-180)"/><path class="cls-32" d="M191.82,1455.77h910.46v-26H200.48Q195.79,1442.63,191.82,1455.77Z"/><circle class="cls-33" cx="829.58" cy="1874.62" r="119.88" transform="translate(-1082.58 1135.66) rotate(-45)"/><circle class="cls-8" cx="829.58" cy="1874.62" r="110.16"/><circle class="cls-34" cx="829.58" cy="1874.62" r="90.32"/><circle class="cls-33" cx="829.58" cy="1874.62" r="22.68" transform="translate(-408.51 240.75) rotate(-13.28)"/><path class="cls-20" d="M1176.54,1904.21l21.57-1.25c-4.84-83.37,10-95.52,14.6-97.26,5.34-2,13.68,3.24,21.74,8.3,10.55,6.61,22.5,14.12,34.9,8.79,13.48-5.8,27.1-23.79,12.63-112.18-8.2-50.13-18.25-87.11-19.42-90.62-69.49-208.87-57.61-190.16-90.36-272.61-14.87-37.46-36-88.35-63.72-148.15l-17.37,13.33c63.88,139.13,114.54,278.09,150.58,413,.12.43,11.7,44,19,88.66,13.19,80.68.26,88.66.13,88.72-2,.85-11.36-5-14.89-7.25-11.34-7.11-25.45-16-40.79-10.23C1181.45,1794.33,1172.36,1832.06,1176.54,1904.21Z"/><path class="cls-7" d="M1133.25,1891.34v66c0,20.54,13.5,37.22,30.16,37.22h80.88c16.65,0,30.16-16.68,30.16-37.22v-66Z"/><rect class="cls-8" x="1083.1" y="1891.34" width="191.34" height="23.05"/><rect class="cls-35" x="989.71" y="1125.47" width="112.57" height="660.59" transform="translate(2092 2911.53) rotate(-180)"/><circle class="cls-33" cx="1046" cy="1851.94" r="72.36"/><circle class="cls-33" cx="1046" cy="1851.94" r="66.5"/><circle class="cls-34" cx="1046" cy="1851.94" r="48.6" transform="translate(-397.51 289.86) rotate(-13.28)"/><circle class="cls-33" cx="1046" cy="1851.94" r="13.69" transform="translate(-1065.26 2109.61) rotate(-67.5)"/><path class="cls-11" d="M1233.7,844.6c-19,3.55-55.76,7.6-79.75-11.39-7.4-5.86-9.35-10.31-9.68-13.73-1.18-12.34,15.63-25.31,30.81-27.24,2.87-.36,10.78-1.36,16.92,3.24,5.15,3.86,6.6,9.8,7.2,11.88C1201.62,815.74,1209.43,828,1233.7,844.6Z"/><path class="cls-22" d="M1464.77,897.24l-.58.26-.59.27c-6,8.54-33,45.15-75.22,48-9.93.67-28.7,1.91-42.83-11.45-9-8.51-18-24.75-13-37.27,3.74-9.24,14-13.48,72.87-25,19-3.72,34.79-6.58,45.77-8.51l251.54-154.76c21.21,5.87,36.38,22.76,38.17,42,1.61,17.36-8.25,30.26-10.94,33.56C1601.45,839,1465.28,897,1464.77,897.24Z"/><path class="cls-22" d="M1397,877.16c-14.44-1.95-33.7-7.88-33.21-11.17,1-6.78,85.94-3.88,86.43,3C1450.44,873,1423.61,880.75,1397,877.16Z"/><rect class="cls-36" x="90.02" y="1891.35" width="186.3" height="103.15" transform="translate(366.33 3885.85) rotate(-180)"/></g></svg>