<svg xmlns="http://www.w3.org/2000/svg" viewBox="0 0 2000 2000"><defs><style>.cls-1{fill:#e8ecf5;}.cls-2{fill:#52262e;}.cls-3{fill:#f79c94;}.cls-4{fill:#fc4356;}.cls-5{fill:#ffa8a1;}.cls-6{fill:#e33f53;}.cls-7{fill:#ffb6b0;}.cls-8{fill:#243d3f;}.cls-9{fill:#d4e0ff;}.cls-10{fill:#fff;}.cls-11{fill:#4c8ec9;}.cls-12{fill:#427eb5;}.cls-13{fill:#6dadf2;}.cls-14{fill:#ebf2f5;}.cls-15{fill:#d83d52;}.cls-16{fill:#68a6e9;}.cls-17{fill:#f8fdff;}.cls-18{fill:#609acf;}.cls-19{fill:#578cbd;}.cls-20{fill:#7db6f3;}.cls-21{fill:#313654;}.cls-22{fill:#d6e3e8;}.cls-23{fill:#c5d6dc;}.cls-24{fill:#f9feff;}.cls-25{fill:#e1ebee;}.cls-26{fill:#e9f0f3;}.cls-27{fill:#bcdce8;}.cls-28{fill:#f9bbb5;}.cls-29{fill:#e3ecef;}.cls-30{fill:#eaf1f3;}.cls-31{fill:#d7e3e7;}.cls-32{fill:#dbe6eb;}.cls-33{fill:#dde8ec;}.cls-34{fill:#c7d8de;}.cls-35{fill:#e69791;}.cls-36{fill:#d1dfe3;}.cls-37{fill:#e6f0f3;}.cls-38{fill:#afd1de;}.cls-39{fill:#e8b3af;}.cls-40{fill:#dae5e8;}.cls-41{fill:#d3e0e4;}.cls-42{fill:#e7f0f3;}.cls-43{fill:#ccdbe1;}.cls-44{fill:#cedde2;}.cls-45{fill:#dfe9ed;}.cls-46{fill:#d3e0e5;}.cls-47{fill:#8cbef5;}.cls-48{fill:#ebf3f6;}.cls-49{fill:#c0dbe5;}.cls-50{fill:#dce7eb;}.cls-51{fill:#e5eef1;}.cls-52{fill:#e7eff1;}.cls-53{fill:#edf3f5;}.cls-54{fill:#e0eaee;}.cls-55{fill:#e2ebef;}.cls-56{fill:#cfdee3;}.cls-57{fill:#d4e0e5;}.cls-58{fill:#d5e2e6;}.cls-59{fill:#804236;}.cls-60{fill:#9ab2b9;}.cls-61{fill:#9bb3b9;}.cls-62{fill:#8ea9b1;}.cls-63{fill:#9eb5bb;}.cls-64{fill:#644f4c;}.cls-65{fill:#456187;}.cls-66{fill:#ced7de;}.cls-67{fill:#5c95d3;}.cls-68{fill:#354f73;}.cls-69{fill:#2d466a;}</style></defs><title>Mesa de trabajo 2</title><g id="Layer_2" data-name="Layer 2"><path class="cls-1" d="M999.28,1890.49C446.85,1890.49-1,1865.38-1,1834.38c0-29,392.53-52.88,896-55.8-.25,19.14,8.87,33.51,18.13,35.78a12.8,12.8,0,0,0,3.14.37c11.51,0,28.3-13.18,34.4-36.4,16.09,0,32.34-.06,48.62-.06,63.42,0,125.46.34,185.6,1,4.82,20.45,18.61,33.09,28.91,33.09h.69c9.77-.54,21.62-13.2,25.21-32.42,436.31,6,759.85,28.14,759.85,54.48,0,31-447.84,56.11-1000.26,56.11"/><path class="cls-2" d="M988.88,195.14c-38.26,12.64-40.68,116.3-33.08,172.34,5,36.79,11.4,84,48.74,121,57.25,56.64,165.12,67.24,194.11,28.73,53.89-71.58-140.46-345-209.77-322.06"/><path class="cls-3" d="M928.54,651.32q-12.85,43.89-24.85,90.75-17,66.82-29.59,129.43h0s-.07.29-.16.63-.18.72-.28,1.07-.17.65-.24.94c-.75,2.78-1.45,5.29-2.09,7.46-.6.92-1.22,1.81-1.8,2.69-1.59,2.29-3,4.46-4.45,6.64-2.3,3.58-2.21,3.44-3.8,5.83-3.22,4.83-3.83,5.33-5.13,7.39a39,39,0,0,0-4.69,11c-3.71,14,.82,39.6.82,39.6a209.82,209.82,0,0,0,5.17,21.77,27,27,0,0,0,13,13.35c6.14,2.83,15.61,4.26,22.34-.29,12.77-8.61,8.65-34,8.24-36.29-1.25-7.2-3.35-13.63-4.21-26.17a43.08,43.08,0,0,1,.23-8.11c.71-6.38,4.13-28.14,4.6-30.48,0-.27.09-.52.13-.75.18-.89.34-1.77.52-2.64.61-3.11,1.22-6,1.83-8.66.09-.37.15-.71.22-1.06.69-2.85,1.32-5.52,1.94-8q39.52-95.05,79.07-190.12a49.7,49.7,0,0,0-3.68-16.07c-2.2-5.29-7.38-18.09-18.87-21.95-11.18-3.76-24.76,1.21-34.32,12.13"/><path class="cls-3" d="M1056.59,450.66c9.41,9.31,12.33,23.74,11.1,40.81-2.66,37.83-25.43,88.68-42.08,125.87a706.22,706.22,0,0,1-44.88,84.42c-8.33,13.38-17.58,27.34-27.9,41.66l-2.94,1.08h0l-31.68,11.58q-10.9-6.9-21.84-13.81c3.75-11,9.29-27.31,15.94-47.29v0c1.16-3.45,2.37-7,3.58-10.71.09-.26.18-.52.26-.78,12.81-38.65,30.52-92.79,53.35-152.83,14.71-38.7,24.7-61.78,34.12-75,6.87-9.69,13.45-14,21.36-15.33,10.94-1.8,23.57,2.36,31.64,10.36"/><path class="cls-3" d="M995.68,495.78c-4.17-11.29,6.34-27.52,13.61-35.36a53.37,53.37,0,0,1,14.55-11l11.47-5.58a113.65,113.65,0,0,0,2.74-62.73q-6.81-14-13.58-28.07c3.94,1.95,33.71,16.05,64.49,1.28,19.44-9.32,28.89-25.15,32.17-31.35a243.81,243.81,0,0,1,2.14,25.11c.17,5,.17,9.58.06,13.79a271.64,271.64,0,0,1-2.08,27.29c-1.29,10.33-.41,28.47,8.64,62.77q-.15,15.21-.32,30.41c-5.4-4.28-13.45-9.16-22.34-8-14.81,2-17.47,19.08-32.32,30-25.16,18.47-72.41,9.85-79.23-8.6"/><path class="cls-4" d="M1201.44,906.46c-.23,0-.47-.05-.73-.11l-1.27-.16c-5.18-.63-10.62-1.21-16.25-1.73a532.9,532.9,0,0,0-115,1.87c-12.16,1.51-23.79,3.39-34.87,5.52-24.13,4.65-26.54,9.49-34.17,7.8-22.78-5-31.63-47.86-34.3-60.75v0a116,116,0,0,1-2-17.6c-.64-12.52-.35-29.17,0-53.71.34-20,1.34-46.53-1.51-73.91-.45-4.22-1-10.35-2.43-18.57-3.14-18.58-7.34-29.28-11.94-62.31a439.9,439.9,0,0,1-3.73-44.17s-2.16-60.3,22.36-95.39c7.63-10.94,14.47-16.4,14.47-16.4,13.56-8.83,27.15-17.6,40.73-26.43-12.8,24.23-11.26,33.5-7.72,37.55,8,9.11,35,.1,59.51-11.36,11.44-5.37,22.34-11.26,30.46-16.1a275.54,275.54,0,0,0,23.62-15.74q11.54,8.47,23.06,17a115.88,115.88,0,0,1,20.52,30.88c23,51.63-3.6,100.28-15.74,166.81-5.48,30.12-10.22,76-1.87,135.28,1.29,2.7,3.3,7.08,5.47,12.58a190.39,190.39,0,0,1,7.52,23.22c1.91,7.24,7.23,20.74,20.75,47.35,4.18,8.23,9.15,17.71,15,28.62"/><path class="cls-5" d="M1137.91,350.39a121.75,121.75,0,0,1-16.37,22.23c-35.61,29.12-78.7,40.14-107.28,24.09-40.12-22.55-35.71-89.56-33.69-120.29a225.5,225.5,0,0,1,19.27-77q-1.65-9.67-3.28-19.35c20.91-25.87,57.11-35.21,86.76-31.22,4.89.65,50.85,7.48,67.38,42.54,4.89,10.39,5.6,19.82,5.66,32.35.06,13.32.51,23.85,0,30.93-3.78,48-4.92,72.11-18.4,95.76"/><path class="cls-2" d="M1189.34,291.35a114.8,114.8,0,0,1-69.53,84.83c11.38-24.34,9.55-39.3,7.44-46.79-.52-1.85-1.32-4.24-1.86-5.83a211.8,211.8,0,0,0-13.81-31.91l-26.54,0q2.28-36.39,4.57-72.78c-25.71-4.44-79.15-10.87-95.36,13.07a79.67,79.67,0,0,0-4.74,8.69A219.77,219.77,0,0,0,971.24,292c-3.72-18.8-6.16-46.87,3.23-77.87,3.77-12.45,7.8-26.11,19.51-39.4,24.6-27.93,61.14-30.47,71.53-31.19,31.72-2.21,56.22,9,67.71,15.23a83.64,83.64,0,0,1,21.4,10.34c25.45,17.18,33.6,43.6,36.4,52.67,9.82,31.82,1.92,59.23-1.68,69.61"/><path class="cls-5" d="M987.83,266.83Q977.32,291.91,966.78,317c14.75,11.54,21.06,10.57,23.85,9,12.16-6.76.35-48.53-2.8-59.17Z"/><path class="cls-6" d="M1106.18,848.18q-13.23-48.24-25.82-98.92c17-30.91,20.21-60.16,22.81-86.55,9.75-99-30.86-159.28-3.75-197.63,18.53,27.66,50.63,47.71,78.93,55.59a114.73,114.73,0,0,1,1,15.71c0,37-16.13,75.4-24.82,123a399.1,399.1,0,0,0-6.41,72.07,456.5,456.5,0,0,0,4.54,63.21c1.29,2.7,3.3,7.08,5.47,12.58a190.25,190.25,0,0,1,7.29,22.28c-.24-.36-.49-.71-.72-1.07a506.53,506.53,0,0,1-49.47,17.73q-4.47,1-9.09,2"/><path class="cls-7" d="M1002.6,1074.54c-15.28,59.23-24.57,108.38-30.6,151.39-10.63,75.87-11,107.33-11.64,124.86-.9,23.25-1,43-.79,57.65,2.45,4.4,13.66,23.54,32.9,26.59,24.11,3.79,53.91-18.78,61.4-57.44,7.37-14,13.15-26.57,17.62-37,1.8-4.21,8.66-20.5,16-42.56,4-11.81,12.87-39.75,25.06-103.57,6.18-32.32,13.53-75.55,19.71-127.41-10.75-8.86-68.79-55.64-104.42-36.06-16,8.79-21.11,27.46-25.27,43.56"/><path class="cls-7" d="M1049.3,1487.4c-17.56,66.54-38.73,112.45-50.89,142.27a1034.1,1034.1,0,0,0-46.93,145.16c-5.73,27.71-26.5,42.45-38.36,39.53s-23.7-26.08-15.27-53.65q27.64-183.18,55.3-366.4,4.61-8.71,9.2-17.47c17.31-21.81,40.75-32.26,59.06-26.23,17.88,5.89,25.33,25.78,29.92,38.67,12.7,35.52,5.72,68.78-2,98.12"/><path class="cls-8" d="M776.17,1828.54l3.39,12.27c6.51.2,16.26.32,28-.29,12.71-.65,35.86-2.57,85.25-15,18.64-4.68,43-11.35,71.5-20.69q.75-13.17,1.51-26.35l-189.69,50Z"/><path class="cls-9" d="M964.14,1795.93c-148.58,42.07-185.19,41.76-189,32.43-3-7.42,14-24.47,25.41-32.83,12.39-9.12,19.9-9.35,29.75-13.27a55.18,55.18,0,0,0,5.38-2.47c1.43-.72,2.91-1.55,4.45-2.52s3.17-2,4.88-3.27c.71-.51,1.44-1,2.21-1.63s1.5-1.17,2.26-1.79c1.46-1.18,3-2.39,4.6-3.67,1.29-1,2.66-2,4.1-3s3.12-2.14,4.89-3.23c1.55-.94,3.21-1.88,5-2.78,1.51-.77,3.14-1.54,4.87-2.29.18-.07.33-.16.51-.22,1.94-.83,3.79-1.52,5.54-2.14,2.11-.73,4.06-1.32,5.82-1.8,1.56-.41,2.94-.73,4.17-1l.18-3.13a150.45,150.45,0,0,0,70.07-2.92,70,70,0,0,1,4.93,51.59Z"/><path class="cls-9" d="M920,1724.67c2,3.17,1.73,6.38,1.16,12.67-.58,6.44-1.1,12.32-5.42,17.74-1.47,1.83-6,7.6-13.19,8.06-7.31.48-14.72-4.78-18.44-13.11a63.32,63.32,0,0,1-.26-13.57c.73-8.42,1.23-14.1,5.4-17.33s9.47-2.24,15.89-1.18c5.84,1,11.81,2,14.86,6.72Z"/><path class="cls-10" d="M873.29,1782.15a3,3,0,0,1-4.06-.89l-11.07-17.38c1.52-1.08,3.12-2.14,4.89-3.23l11.12,17.44a2.94,2.94,0,0,1-.88,4.06Z"/><path class="cls-10" d="M884.78,1778.6a2.94,2.94,0,0,1-4.06-.9l-12.67-19.83c1.51-.77,3.14-1.54,4.87-2.29.18-.07.33-.16.51-.22l12.23,19.18a2.94,2.94,0,0,1-.88,4.06Z"/><path class="cls-10" d="M896.37,1775a2.94,2.94,0,0,1-4.06-.88L879,1753.22c2.11-.73,4.06-1.32,5.82-1.8L897.25,1771a2.9,2.9,0,0,1-.88,4Z"/><path class="cls-10" d="M863.16,1786.61a3,3,0,0,1-4.06-.89l-9.64-15.14c1.46-1.18,3-2.39,4.6-3.67l10,15.64a2.94,2.94,0,0,1-.88,4.06Z"/><path class="cls-10" d="M851.68,1789.93a2.93,2.93,0,0,1-4-.89l-7.52-11.77c1.54-.93,3.17-2,4.88-3.27l7.58,11.87a2.94,2.94,0,0,1-.89,4.06Z"/><path class="cls-10" d="M840.26,1792.42a2.93,2.93,0,0,1-4.06-.88l-5.92-9.28a55.18,55.18,0,0,0,5.38-2.47l5.48,8.59a2.92,2.92,0,0,1-.88,4Z"/><path class="cls-11" d="M1168.06,1057.23q-51.18,160-102.38,319.87a232.73,232.73,0,0,1,7.32,68.2c-1.65,39.06-13,67.63-21.44,88.19-29.8,73-58,135.79-79.06,181.35L950,1709.66q-24.36-5.58-48.67-11.18,42.4-363.51,84.8-727.07,42.36,20,84.74,40l97.24,45.86"/><path class="cls-12" d="M972.5,1714.84l-4.17-1L950,1709.66c36-68.12,56-124.94,67.38-163.63,12.09-41.07,16.4-68.13,18.52-84.89a486.76,486.76,0,0,0,2.38-98.17,1440.62,1440.62,0,0,0,30.89-186.8q4.14,23.8,8.22,47.71,6.29,38.73,12.59,77.47-12.14,37.88-24.25,75.75h0a234.7,234.7,0,0,1,7.53,58.62c0,3.12-.07,6.32-.21,9.58-1.65,39.06-13,67.63-21.44,88.19-29.8,73-58,135.79-79.06,181.35"/><path class="cls-13" d="M978.28,946.47c.18.67.37,1.33.55,2q6.15,22.37,13.59,43.64,33.24,59.16,66.51,118.29c45.84-32.12,160.84-118.86,142.33-189a60.6,60.6,0,0,0-2.29-6.9l0,0a17.1,17.1,0,0,0-3.23-4c-17.8-16.85-76.53-10.38-152.68,13.3-13,4-26.47,8.56-40.36,13.58-8,2.87-16.15,5.93-24.4,9.12"/><path class="cls-13" d="M1217.67,934c-.19.33-.42.67-.63,1-8.49-10.72-12.87-16.11-13.11-16.11,0,0,0,.13.13.37a176,176,0,0,0-40.81-5.56,174.1,174.1,0,0,0-19.42.76c-1.36.09-2.73.26-4.11.41-11.81,1.37-30.43,3.75-50.47,14.16-32.52,16.81-49.23,44.74-56.58,59.67-.33.63-.59,1.18-.85,1.77l0,0c-.85.1-1.69.21-2.57.3-5.7.73-11.67,1.31-17.85,1.76-5.89.41-11.52.7-17,.84a7.13,7.13,0,0,1-.8,0h-.26c-.37-.87-.69-1.78-1-2.67-2.25-6.14-4.47-12.52-6.61-19.21q-3.6-11.07-6.87-23.12c-.21-.68-.37-1.33-.56-2-.79-3-1.61-6.06-2.37-9.12-.27-1.22-.58-2.4-.87-3.63-1.33-5.41-3.94-17.56-4.92-22.56v0c-1.82-9.14-4.6-28.54-6.82-54.19l.93.08c11.62.92,24.39,1.53,38.1,1.61a502,502,0,0,0,56.6-2.94c12.21-1.34,23.88-3.09,35-5.09a503.67,503.67,0,0,0,71.89-18.66c16,27.45,31.29,56.79,45.64,88.11.78,1.76,1.55,3.46,2.32,5.22,1.32,2.93,2.65,5.84,3.91,8.75"/><path class="cls-7" d="M1079.78,1068.47c2.75,132.81,19.39,213.91,35,286.89,7,32.66,16.41,75.25,30.52,75.67,6.91.2,14-10.4,28.13-31.57,9.67-14.47,9.73-22.14,18.83-32.17a70.89,70.89,0,0,1,24.76-17.3,620.59,620.59,0,0,0,9.66-82.67c.63-12.87,1.72-43.17-4-110.13-2.86-33.9-7.62-79-15.93-132.38-13.17-5.83-84-36.2-114.06-6.76-13.48,13.22-13.34,33.23-13,50.42"/><path class="cls-7" d="M1250.22,1447.77c2.77,71.12-4.27,122.93-7.29,156.1a1067.69,1067.69,0,0,0-2.47,157.75c2.7,29.12-13.37,50-26,50.7s-31.32-18.61-31.33-48.42L1127,1384.82q1.9-10,3.81-20c10.52-26.82,30.54-44.24,50.47-43.83,19.45.42,32.84,17.84,41.3,29.19,23.3,31.28,26.45,66.29,27.68,97.64"/><path class="cls-13" d="M1246.68,1039.1a3.17,3.17,0,0,1,0,.54c1.8,37.45,0,67.62,0,67.62q-.62,9.35-1.33,19l0,.29c-4.4,60.07-11.23,130-22.07,208l-.06.3q-.56,4.17-1.15,8.35c2.12,1.9,4.06,3.81,5.78,5.69a84.79,84.79,0,0,1,13.35,18.62l.12.21c.15.36.34.71.52,1,0,0,.4.87,1.08,2.63l0,.07c2.12,5.42,6.9,19,11.26,40.81.15.6.24,1.2.33,1.8.31,1.91.57,3.8.84,5.63q-5.74,152.81-11.48,305.56c-.21,5.78-.44,11.61-.66,17.39l-83.28,9.47q-31.62-204.54-63.2-409.1-26.76-164.62-53.51-329.18v0c-.06-.31-.13-.63-.21-.94q-1.8-8.3-3.63-16.54-7.55-34.49-15.09-68.94c20-36.49,50.18-60.68,80.18-66.9l1.09-.23a70.42,70.42,0,0,1,26.9-.21c8.24,1.56,22.16,5.9,36.92,19.69,2.06,1,4.24,2,6.55,3.18a135,135,0,0,1,37.49,28.25,59.29,59.29,0,0,1,5.56,7.06c19,27.72,25.65,78.76,27.71,120.8"/><path class="cls-14" d="M1243.85,1725.33h0q5.75-152.79,11.48-305.56c-.27-1.83-.53-3.72-.84-5.63-.09-.6-.18-1.2-.33-1.8-4.36-21.82-9.14-35.39-11.26-40.81,1.15,2.76,2.35,6,3.68,10a216.86,216.86,0,0,1,8.85,37.75q-1.85,54.3-3.83,108.64-3.57,98.71-7.75,197.44h0M1241.38,1368a1,1,0,0,1-.11-.23c0,.08.08.16.11.23m-.23-.44A84.79,84.79,0,0,0,1227.8,1349a69,69,0,0,1,8.29,9.77,59.76,59.76,0,0,1,5.06,8.85m-18-32.66h0l.06-.3c10.84-78,17.67-148,22.07-208l0-.29h0l0,.29a1802.32,1802.32,0,0,1-22.07,208l-.06.3h0M1219,918.3a59.29,59.29,0,0,0-5.56-7.06,127.3,127.3,0,0,0-11.15-10.69Q1185.07,865,1166.4,833c-.26-.9-.51-1.72-.71-2.47,0-.22-.14-.53-.23-.94,17.55,26,34.6,53.84,50.84,83.72.91,1.69,1.8,3.35,2.67,5"/><path class="cls-15" d="M1115.27,846.21a506.53,506.53,0,0,0,49.47-17.73c.23.36.48.71.72,1.07.09.41.19.72.23.94.2.75.45,1.57.71,2.47l-.6-1a505.58,505.58,0,0,1-50.53,14.29"/><path class="cls-16" d="M1202.26,900.55A138.4,138.4,0,0,0,1175.92,883c-2.31-1.2-4.49-2.23-6.55-3.18-14.76-13.79-28.68-18.13-36.92-19.69a66.68,66.68,0,0,0-12.64-1.2,74.68,74.68,0,0,0-14.26,1.41l-1.09.23h0c-.83-.74-1.66-1.46-2.49-2.18,2.24-.46,4.46-.93,6.64-1.41q-1.12-4.08-2.26-8.17c3-.85,6-1.72,8.92-2.59a505.58,505.58,0,0,0,50.53-14.29l.6,1h0Q1185,865,1202.26,900.55"/><path class="cls-16" d="M1213.31,1745.38q1.18-160.43,2.37-320.89a125.47,125.47,0,0,0-34.41-84.72c9.23-172.63,5.27-299.46-.26-335.33-4.2-27.25-19.73-69.34-26.19-81.15-2.06-3.78-4.15-7.42-6.37-10.93a219,219,0,0,0-12.51-18.1A238.5,238.5,0,0,0,1105,861l-.51-.45h0l1.09-.23a74.68,74.68,0,0,1,14.26-1.41,66.68,66.68,0,0,1,12.64,1.2c8.24,1.56,22.16,5.9,36.92,19.69,2.06,1,4.24,2,6.55,3.18a138.4,138.4,0,0,1,26.34,17.56,127.3,127.3,0,0,1,11.15,10.69,59.29,59.29,0,0,1,5.56,7.06h0c19,27.72,25.65,78.76,27.71,120.8a2.23,2.23,0,0,1,0,.37v.17h0c.55,18.89.37,41.22-.6,68.3q-.33,8.86-.75,18.33h0l0,.29c-4.4,60.07-11.23,130-22.07,208l-.06.3h0c-.46,2.89-1,5.76-1.44,8.68a65,65,0,0,1,6.07,5.36h0a84.79,84.79,0,0,1,13.35,18.62h0l.12.21h0a1,1,0,0,0,.11.23c.47,1,1,2.2,1.49,3.45l0,.07h0c2.12,5.42,6.9,19,11.26,40.81.15.6.24,1.2.33,1.8.31,1.91.57,3.8.84,5.63q-5.74,152.81-11.48,305.56h0c-.23,5.58-.47,11.18-.7,16.76q-14.91,1.67-29.84,3.29"/><path class="cls-17" d="M985.91,972.81q-1.53-5.05-2.86-9.61c.94,3.15,1.91,6.27,2.89,9.39,0,.06,0,.16,0,.22"/><path class="cls-18" d="M1069.12,1176.17q-6-34.67-12.1-69.17c.62,1.09,1.23,2.19,1.85,3.29q5.2,32.09,10.42,64.16c0,.57-.1,1.13-.17,1.72m-45.54-128.66q-15.17-26-30.32-52c-2.79-8.12-5.22-15.71-7.35-22.66,0-.06,0-.16,0-.22q3.1,9.87,6.48,19.52,15.57,27.69,31.16,55.4"/><path class="cls-19" d="M1077.34,1223.88q-4.1-23.91-8.22-47.71c.07-.59.13-1.15.17-1.72q4,24.71,8,49.43"/><path class="cls-20" d="M1058.87,1110.29c-.62-1.1-1.23-2.2-1.85-3.29-.18-1-.35-2-.52-3q-16.47-28.24-32.92-56.52-15.6-27.71-31.16-55.4-3.37-9.65-6.48-19.52c-1-3.12-2-6.24-2.89-9.39-.08-.28-.15-.54-.23-.8q1.41,4.68,2.89,9.19c2.14,6.69,4.36,13.07,6.61,19.21.31.89.63,1.8,1,2.67h.26a7.13,7.13,0,0,0,.8,0c5.47-.14,11.1-.43,17-.84,6.18-.45,12.15-1,17.85-1.76.88-.09,1.72-.2,2.57-.3l0,0c.26-.59.52-1.14.85-1.77q1.44-3,3.42-6.57c.1.19.19.37.3.56,1,4.55,2,9.11,3,13.67q1.85,8.25,3.63,16.54c.08.31.15.63.21.94v0q7.82,48.18,15.67,96.38"/><path class="cls-20" d="M993.58,993.47h-.26c-.37-.87-.69-1.78-1-2.67-2.25-6.14-4.47-12.52-6.61-19.21q-1.47-4.51-2.89-9.19c-1-3.6-2-7-2.82-10.08-1.15-4.21-2.3-8.45-3.43-12.79l34.69-22.26c.54,2.12,1.11,4.25,1.72,6.42a299.74,299.74,0,0,0,23.11,58.48q-2,3.58-3.42,6.57c-.33.63-.59,1.18-.85,1.77l0,0c-.85.1-1.69.21-2.57.3-5.7.73-11.67,1.31-17.85,1.76-5.89.41-11.52.7-17,.84a7.13,7.13,0,0,1-.8,0"/><path class="cls-20" d="M1160.29,1751.75q-30-208.89-65.42-423.58-8.65-52.37-17.53-104.29-4-24.72-8-49.43-5.2-32.09-10.42-64.16-7.84-48.19-15.67-96.38v0c-.06-.31-.13-.63-.21-.94q-1.8-8.3-3.63-16.54c-1-4.56-2-9.12-3-13.67,2.12,4,4.23,7.81,6.26,11.33l0,0a279.93,279.93,0,0,0,49.29,61.14q17.52,135.42,35.73,270.67,28.5,211.69,58.72,423.21l-26.13,2.63"/><path class="cls-8" d="M1042.72,1842.87c.72,4.32,1.45,8.66,2.17,13,6.67.91,16.68,2.08,28.88,2.72,13.15.69,37.16,1.22,89.28-6.21,19.68-2.8,45.5-7,75.78-13.56q2.19-13.47,4.39-27l-200.5,31Z"/><path class="cls-9" d="M1239.58,1829.57c-157.35,27.26-195,23-197.9,13-2.36-8,17-23.66,29.66-31,13.72-8,21.48-7.47,32-10.44,1.83-.52,3.74-1.14,5.8-1.95,1.55-.6,3.16-1.28,4.84-2.11s3.48-1.75,5.37-2.84c.78-.46,1.6-.92,2.46-1.45s1.66-1,2.52-1.6q2.42-1.56,5.12-3.27c1.43-.89,3-1.79,4.54-2.68s3.44-1.87,5.38-2.8c1.69-.8,3.5-1.58,5.44-2.32,1.63-.63,3.4-1.24,5.26-1.83.18,0,.35-.12.55-.17,2.08-.64,4.06-1.17,5.92-1.6,2.25-.52,4.32-.92,6.19-1.23,1.64-.26,3.1-.44,4.39-.6l.53-3.21a155.64,155.64,0,0,0,72.38,4.55,72.65,72.65,0,0,1-.48,53.59Z"/><path class="cls-9" d="M1201.87,1751.53c1.74,3.46,1.1,6.74-.16,13.15-1.28,6.57-2.46,12.55-7.49,17.67-1.71,1.73-7,7.16-14.43,6.87-7.58-.31-14.62-6.52-17.56-15.48a66.42,66.42,0,0,1,1.2-14c1.66-8.58,2.79-14.38,7.41-17.24s10-1.29,16.47.49c5.91,1.63,12,3.29,14.56,8.52Z"/><path class="cls-10" d="M1147.61,1805.61a3.07,3.07,0,0,1-4.08-1.35l-9.51-19.07c1.69-.94,3.44-1.87,5.38-2.8l9.56,19.15a3,3,0,0,1-1.35,4.07Z"/><path class="cls-10" d="M1159.82,1803.2a3,3,0,0,1-4.08-1.35l-10.9-21.78c1.63-.63,3.4-1.24,5.26-1.83.18,0,.35-.12.55-.17l10.51,21a3.05,3.05,0,0,1-1.34,4.08Z"/><path class="cls-10" d="M1172.12,1800.75a3,3,0,0,1-4.08-1.35l-11.47-22.93c2.25-.52,4.32-.92,6.19-1.23l10.7,21.45a3,3,0,0,1-1.34,4.06Z"/><path class="cls-10" d="M1136.72,1809.1a3,3,0,0,1-4.07-1.35l-8.29-16.61q2.42-1.56,5.12-3.27l8.58,17.16a3,3,0,0,1-1.34,4.07Z"/><path class="cls-10" d="M1124.56,1811.29a3,3,0,0,1-4.08-1.36L1114,1797c1.69-.81,3.48-1.75,5.37-2.84l6.52,13a3,3,0,0,1-1.34,4.08Z"/><path class="cls-10" d="M1112.53,1812.62a3,3,0,0,1-4.07-1.35l-5.09-10.18c1.83-.52,3.74-1.14,5.8-1.95l4.72,9.41a3,3,0,0,1-1.36,4.07Z"/><path class="cls-13" d="M1045.78,597.11q12.18,58.83,26.83,120.3,17.27,72.15,36,139.56a430.35,430.35,0,0,1-145.24,6.95c-2-33.92-3.14-69.32-3.16-106.09q0-24.76.63-48.63a342,342,0,0,1-18-134.19l102.94,22.1"/><path class="cls-21" d="M1045.94,597.43l-24.32-5.53c7.63-24.58,24.67-66.84,63.42-104.56a241,241,0,0,1,49.47-37l15.57,11.58a220.57,220.57,0,0,0-51.57,40.62c-33.15,35.35-46.76,73.49-52.57,94.94Z"/><path class="cls-3" d="M1156.05,467c-11.24,1.72-22.11,9.37-27.17,19.22-8.67,16.85.8,37.93,39.44,98.39,34.83,54.5,68,101.25,91.36,134.64,15,21.46,27.21,39,35,50.25,7.15-.4,17-2.18,24.13-9.29,30-30.13-22.47-124.28-47.35-169-28.85-51.8-72.83-130.76-115.36-124.24Z"/><path class="cls-21" d="M956.53,578.06l-13.9-2.94C951.18,545.4,967.46,505.21,1000,467a276.48,276.48,0,0,1,26.22-26.84l10.1-.48c-8.55,11.09-17.13,23-25.57,35.84a601.59,601.59,0,0,0-54.21,102.51Z"/><path class="cls-5" d="M874.1,914.28c0-.81.16-7.41-5.06-11.58-.85-.67-4.72-3.76-8.26-2.76-8.16,2.3-7.83,24.38-7.8,26.81.2,13,3.92,26.84,6.66,26.7s4.6-14.21,5-22.05c.14-2.6.14-4.82.1-6.49l9.33-10.63"/><path class="cls-22" d="M834.57,871.41q7.54,13.86,15.06,27.74l19.55,36Q875.09,946.08,881,957q-105.1-69.75-210.2-139.5l4.62-2.65,11.72-6.72c3.15-1.82,6.3-3.61,9.45-5.43l138,68.73"/><path class="cls-23" d="M849.64,900,687.15,808.11c3.15-1.82,6.3-3.61,9.45-5.43l138,68.73c.35.63.69,1.27,1,1.91l14,26.68"/><path class="cls-24" d="M670.81,817.48l.3-.17-.3.17m.32-.18,0,0,0,0m.07,0h0m2.56-1.47,2.78-1.6h0l-1.12.64-1.67,1"/><path class="cls-25" d="M878.64,955.42l-15.58-10.34-8.93-5.93L670.81,817.48h0l.3-.17h0l0,0h0l1.91-1.09.64-.37,1.67-1,1.12-.64q47.73,30.64,95.75,60.8,47.31,29.73,94.93,59c.21.44.43.87.65,1.3l.26-.08,1.49,2.83h0c2.16,4.36,5.38,10.68,9,17.4"/><path class="cls-22" d="M964,836.85c-13.2-6.62-25.76-17.79-35.28-32.66a96.73,96.73,0,0,1-12.78-29.61v0c-3.82-16-2.78-31.43,3-43.55v0a43.17,43.17,0,0,1,6.25-9.72,39.06,39.06,0,0,1,8.54-7.44c15.38-9.86,35.93-7.74,54.49,3.57a93.7,93.7,0,0,1,29.74,29.54,99.65,99.65,0,0,1,10.38,21.44c9.41,27.61,4.4,55.27-14.24,68.16-.37.27-.72.52-1.11.76a39.59,39.59,0,0,1-13.32,5.39c-11.16,2.34-23.64.15-35.6-5.84h0m84.17-82.22a124.91,124.91,0,0,0-10.55-20.35,119.19,119.19,0,0,0-22.79-26.3,102.86,102.86,0,0,0-13.53-10,96.61,96.61,0,0,0-18-8.78c-.31-.11-.59-.22-.9-.31-22.17-7.85-44-6-61.4,5.2a61.8,61.8,0,0,0-10.38,8.34,65.39,65.39,0,0,0-6.69,7.88,71.6,71.6,0,0,0-11.37,25.57c-.5,2.19-.93,4.44-1.27,6.73-.29,2-.54,4-.69,6.09s-.25,3.85-.28,5.8v.22c0,.39,0,.78,0,1.17a103.47,103.47,0,0,0,4.51,30.29l0,.08a111.34,111.34,0,0,0,4.68,12.85v0A121.52,121.52,0,0,0,909,816.85a124.07,124.07,0,0,0,8.11,11.24l.29.36v0c12.72,15.47,28.62,27.14,45.89,33.43a81.93,81.93,0,0,0,23.93,5,64.93,64.93,0,0,0,26.94-4.14h0a47.78,47.78,0,0,0,5-2.15,59.55,59.55,0,0,0,6.48-3.6c1-.61,1.87-1.24,2.78-1.9,12.49-9,21.2-22.27,25.25-38.37v0A88.06,88.06,0,0,0,1056,802.4a105.92,105.92,0,0,0-7.83-47.77"/><path class="cls-26" d="M1019.92,844.16l-5.88-7.63c12.51-8.66,18.89-24,18.86-41.48a83.08,83.08,0,0,0-4.63-26.67,99.65,99.65,0,0,0-10.38-21.44,93.7,93.7,0,0,0-29.74-29.54c-10.52-6.41-21.67-9.87-32.16-9.87a40.93,40.93,0,0,0-22.33,6.3,39.29,39.29,0,0,0-8.54,7.44l-6.06-7.86a52.75,52.75,0,0,1,9.41-7.67,54.53,54.53,0,0,1,29.79-8.56,69,69,0,0,1,23.62,4.37,84,84,0,0,1,20.62,11,101.36,101.36,0,0,1,25.92,27.57,102.74,102.74,0,0,1,10.7,21.91,89.09,89.09,0,0,1,5.05,36.52c-1.56,19.6-10.17,35.71-24.25,45.57"/><path class="cls-22" d="M1040.86,879.27q2.91-14.31,5.81-28.61,4.11-20.07,8.23-40.13c-20.19,28.82-30.62,38.16-36.38,40.29a4.14,4.14,0,0,0-2.51,1.94c-2.38,5.11,11.26,16.57,24.85,26.51"/><path class="cls-27" d="M1039.49,891.82a29.33,29.33,0,0,1-11.87,14.94l-96.77,62.13-27.74-52.76-.63-1.19-.17-.33-26.44-50.29L873,858.91l-33.67-64-4.8-9.1-.08-.17L819.09,756.4l-1.33-2.52h0l-1.8-3.4,88-56.52.12.12,0,0q65.46,84.88,130.9,169.7a29.52,29.52,0,0,1,4.43,28"/><path class="cls-22" d="M1021.15,910.93,924.38,973a29.41,29.41,0,0,1-24.7,3.35c-.44-.12-.89-.28-1.32-.43s-.64-.23-1-.37l-.19-.08c-.37-.13-.73-.29-1.1-.46a20,20,0,0,1-2.26-1.15c-.74-.42-1.47-.86-2.18-1.35-.3-.2-.61-.42-.91-.65l-.13-.09c-.29-.2-.56-.43-.83-.65l-.22-.18c-.33-.26-.64-.53-1-.8s-.55-.51-.82-.79l-.1-.09,0,0c-.21-.2-.42-.41-.63-.65h0l-.31-.34a17.57,17.57,0,0,1-1.24-1.43q-.29-.35-.54-.69l-.51-.68q-.31-.44-.6-.87c-.3-.45-.59-.91-.86-1.39-.17-.27-.34-.55-.48-.8s-.2-.35-.28-.51l-8.47-16.11-4.34-8.23h0l-1.24-2.37-9.83-18.68-27.9-53-5.56-10.58L799.65,805l-.12-.26-17.18-32.66h0l88-56.52,1.91,2.5.43.56h0l55.31,71.7,2.58,3.34,89.05,115.42,1.46,1.88"/><path class="cls-28" d="M899.68,976.39c-.14,0-.28-.08-.41-.12.13,0,.27.09.41.12m-.42-.12h0m-.66-.22c-.94-.34-1.87-.71-2.77-1.14l.29.14c.37.17.73.33,1.1.46l.19.08c.31.14.63.25,1,.37l.24.09m-4.36-1.94a10.59,10.59,0,0,1-1-.55c.19.12.39.23.6.34a2.82,2.82,0,0,0,.38.21m-2-1.16a29.76,29.76,0,0,1-4-3.14l.26.23.15.14h0c.31.27.62.54,1,.8l.22.18c.27.22.54.45.83.65l.13.09c.3.23.61.45.91.65l.59.4"/><path class="cls-29" d="M888.64,970.18l-.15-.14.15.14"/><path class="cls-28" d="M888.15,969.72a29.23,29.23,0,0,1-5.94-7.82c.08.16.18.33.28.51h0l0,.06.53.91c.25.42.51.83.77,1.22l.33.49c.09.12.18.24.27.38l.51.68q.25.35.54.69a17.57,17.57,0,0,0,1.24,1.43l.31.34h0c.21.24.42.45.63.65l0,0,.1.09.33.33"/><path class="cls-29" d="M884.16,965.09l-.33-.49c-.26-.39-.52-.8-.77-1.22.32.52.68,1.09,1.1,1.71m-1.63-2.62,0-.06,0,.06"/><polyline class="cls-30" points="869.63 938.01 868.14 935.18 868.15 935.18 868.15 935.18 869.4 937.55 869.4 937.55 869.4 937.56 869.54 937.84 869.63 938.01"/><path class="cls-24" d="M835.68,873.44l-.07-.12-5.18-9.86-5.56-10.58,5.56,10.58,5.25,10"/><path class="cls-29" d="M858.66,917.16l-9-17.16h0l8.67,16.48.34.68"/><path class="cls-31" d="M849.65,900h0l-14-26.68.07.12,14,26.56"/><path class="cls-24" d="M782.5,771.37c.55-.93,2.28-2.6,5-4.89h0c-2.73,2.28-4.47,4-5,4.88"/><path class="cls-29" d="M869.4,937.55l-1.24-2.37h0l.07,0c.34.7.74,1.5,1.18,2.39m-11.08-21.07L849.65,900l-14-26.56-5.25-10-5.56-10.58-25.34-48.17-17.17-32.64a.59.59,0,0,0,.47.15c.87,0,2.79-.71,5.6-2h0l.87-.41h0q8.76,16.41,17.52,32.78,24.4,45.72,48.83,91.43c-1.84,1.84-3.82,3.7-6,5.53q4.32,8.46,8.62,16.93"/><path class="cls-32" d="M880,852.33c-17.39-30.45-36.7-64.24-56.42-98.8-.46-.79-.91-1.59-1.35-2.36h0c.88-.5,1.74-1,2.64-1.56l4.52-2.81h0Q856.21,791,883,835.21a96.68,96.68,0,0,1-3,17.12"/><path class="cls-17" d="M835.61,732.77h0c1.73-1.15,3.47-2.27,5.27-3.42s3.64-2.34,5.42-3.44h0c-1.78,1.12-3.6,2.29-5.42,3.45s-3.53,2.27-5.27,3.41"/><path class="cls-33" d="M880.89,802l-7.71-11.8c-1.33-2-2.64-4-3.95-6.07-.21-.27-.41-.59-.6-.88q-14.16-21.63-28.32-43.29c1.74-1.07,3.49-2.19,5.24-3.32s3.71-2.38,5.52-3.58c2.58,3.62,22.74,32.78,29.82,68.94"/><path class="cls-34" d="M908.46,977.73a29.26,29.26,0,0,1-7.69-1c-.37-.09-.73-.2-1.09-.32h0l-19.3-36.11-4.14-7.75c12.13-4.61,20.07-10.87,25.42-16.66a62.08,62.08,0,0,0,8.21-11.28c.18.34.38.67.56,1l32,55.9h0l-18,11.55a29.4,29.4,0,0,1-15.92,4.69"/><path class="cls-34" d="M899.25,976.27c-.22-.08-.43-.16-.65-.22.22.06.43.14.65.22"/><path class="cls-34" d="M895.83,974.91a16.88,16.88,0,0,1-1.59-.8,16.88,16.88,0,0,0,1.59.8"/><path class="cls-35" d="M893.26,973.56c-.34-.2-.67-.4-1-.61.32.21.65.41,1,.61m-5-3.75s0,0-.06-.06l0,0,.08.09m-6-7.91h0c-1.22-2.16-2.42-4.35-3.57-6.48l.24.15,3.33,6.33h0"/><path class="cls-36" d="M878.88,955.57l-.24-.15c-3.62-6.72-6.84-13-9-17.4h0l4.1,7.8v0l5.14,9.78"/><path class="cls-34" d="M954.64,953.62h0l-36.91-61-1.6-2.64a102,102,0,0,0,4.28-27.63l5.84,8.94,12,18.27,34.37,52.51-18,11.54"/><path class="cls-37" d="M878.14,706.51h0c6.49-3.77,12.08-6.85,16.39-9,4.72-2.39,7.91-3.72,9.1-3.72.24,0,.4,0,.47.16l0,.16,0-.16c-.07-.11-.23-.16-.47-.16-1.19,0-4.38,1.33-9.1,3.72h0c-4.31,2.2-9.9,5.28-16.39,9"/><path class="cls-38" d="M1019.69,909.05h0L930.64,793.63l-2.58-3.34-55.31-71.7c2.6-1.76,5.1-3.49,7.42-5.14l3-2.1,1.34-1q1.86-1.32,3.57-2.58c2.32-1.71,4.46-3.26,6.31-4.7l1.4-1.09,1.3-1,.06-.06h0c.85,1.15,38.89,53.76,121.13,167.54,1.61,1.95,9,11.26,7.81,24.39a31.43,31.43,0,0,1-6.38,16.19"/><path class="cls-34" d="M977.61,938.87l10.43-6.7-56.86-82.74-13.57-19.76c-5.78-31.28-20.31-66.75-43.32-102.62l-.42-.67c-1.26-2-2.56-3.94-3.86-5.91l2.73-1.88h0l55.31,71.7,2.58,3.34,89.05,115.42h0a40.07,40.07,0,0,1-8.58,8.32l-3.51,2.25c-.46.26-.77.4-.88.46l.19,0-29.3,18.81"/><path class="cls-39" d="M894.24,974.11h0a2.82,2.82,0,0,1-.38-.21c-.21-.11-.41-.22-.6-.34s-.67-.4-1-.61l-.59-.4c-.3-.2-.61-.42-.91-.65l-.13-.09c-.29-.2-.56-.43-.83-.65l-.22-.18c-.33-.26-.64-.53-1-.8h0c.31.27.62.54,1,.8l.22.18c.27.22.54.45.83.65l.13.09c.3.23.61.45.91.65.71.49,1.44.93,2.18,1.35a2.82,2.82,0,0,0,.38.21M888.49,970l-.26-.23-.08-.09-.33-.33-.1-.09,0,0c-.21-.2-.42-.41-.63-.65h0l-.31-.34a17.57,17.57,0,0,1-1.24-1.43q-.29-.35-.54-.69l-.51-.68c-.09-.14-.18-.26-.27-.38.09.12.18.24.27.38l.51.68q.25.35.54.69a17.57,17.57,0,0,0,1.24,1.43l.31.34h0c.21.24.42.45.63.65l0,0,.1.09c.22.23.44.43.67.65m-5.43-6.66-.53-.91c.13.23.28.5.44.74l.09.17"/><polyline class="cls-40" points="878.88 955.57 878.88 955.57 873.74 945.79 873.73 945.8 869.63 938.01 869.54 937.84 869.4 937.56 869.4 937.55 869.4 937.55 869.4 937.56 873.74 945.79 878.88 955.57"/><path class="cls-41" d="M899.68,976.39c-.14,0-.28-.08-.41-.12h0c-.22-.08-.43-.16-.65-.22l-.24-.09c-.32-.12-.64-.23-1-.37l-.19-.08c-.37-.13-.73-.29-1.1-.46l-.29-.14a16.88,16.88,0,0,1-1.59-.8,2.82,2.82,0,0,1-.38-.21c-.74-.42-1.47-.86-2.18-1.35-.3-.2-.61-.42-.91-.65l-.13-.09c-.29-.2-.56-.43-.83-.65l-.22-.18c-.33-.26-.64-.53-1-.8h0l-.15-.14c-.23-.22-.45-.42-.67-.65l-.1-.09,0,0c-.21-.2-.42-.41-.63-.65h0l-.31-.34a17.57,17.57,0,0,1-1.24-1.43q-.29-.35-.54-.69l-.51-.68c-.09-.14-.18-.26-.27-.38-.42-.62-.78-1.19-1.1-1.71l-.09-.17c-.16-.24-.31-.51-.44-.74l0-.06h0c-.1-.18-.2-.35-.28-.51l-3.33-6.33-5.14-9.78-4.34-8.23h0c-.44-.89-.84-1.69-1.18-2.39,2.86-.8,5.53-1.67,8-2.63l4.14,7.75,19.3,36.11"/><polyline class="cls-42" points="942.38 961.49 942.38 961.49 954.64 953.62 954.64 953.62 942.38 961.49"/><path class="cls-43" d="M942.38,961.49h0l-32-55.9c-.18-.33-.38-.66-.56-1a72.83,72.83,0,0,0,6.26-14.6l1.6,2.64,36.91,61h0l-12.26,7.87"/><path class="cls-44" d="M972.59,942.08l-34.37-52.51-12-18.27-5.84-8.94a159.21,159.21,0,0,0-2.8-32.69l13.57,19.76L988,932.17l-10.43,6.7-5,3.21"/><polyline class="cls-45" points="1006.91 920.06 1007.6 919.62 1007.6 919.62 1006.91 920.06 1006.91 920.06"/><path class="cls-46" d="M1006.72,920.08c.11-.06.42-.2.88-.46l-.69.44-.19,0"/><path class="cls-47" d="M1021.15,910.93h0l6.47-4.17a29.68,29.68,0,0,0,13.61-24.94,29.68,29.68,0,0,1-13.61,24.94l-6.47,4.17"/><polyline class="cls-45" points="1011.11 917.37 1011.11 917.37 1021.15 910.93 1021.15 910.93 1011.11 917.37"/><path class="cls-48" d="M894.53,697.46h0c4.72-2.39,7.91-3.72,9.1-3.72.24,0,.4,0,.47.16l0,.16h0l0-.15c-.07-.12-.23-.17-.47-.17-1.19,0-4.38,1.33-9.1,3.72"/><path class="cls-49" d="M1021.15,910.93l-1.46-1.88a31.43,31.43,0,0,0,6.38-16.19c1.2-13.13-6.2-22.44-7.81-24.39C936,754.69,898,702.08,897.13,700.93a9,9,0,0,0,.86-.7,3,3,0,0,0,.43-.33l1.1-.9h0c.48-.39.92-.78,1.34-1.17.62-.56,1.14-1.06,1.61-1.48s.8-.83,1.09-1.17a5.32,5.32,0,0,0,.44-.64,1,1,0,0,0,.15-.45v0h0l0,0q65.46,84.88,130.9,169.7a29.6,29.6,0,0,1-7.44,43h0l-6.47,4.17"/><path class="cls-46" d="M1011.11,917.37a40.07,40.07,0,0,0,8.58-8.32h0l1.46,1.88-10,6.44"/><path class="cls-50" d="M867.64,934.23c-.14-.1-.28-.17-.41-.27-2.86-5.59-5.71-11.21-8.57-16.8l9,17.07"/><path class="cls-51" d="M867.88,935.26c-.22-.43-.44-.86-.65-1.3.13.1.27.17.41.27l.5.95-.26.08"/><path class="cls-50" d="M875.93,932q-10.12-19-20.27-38a94.4,94.4,0,0,0,18-24.86A92,92,0,0,0,880,852.33c10.74,18.81,20.76,36.33,29.69,52a59.77,59.77,0,0,1-7.39,10.31c-.27.33-.56.64-.85.95-5.37,5.75-13.33,11.93-25.52,16.41h0m40-42.26-33-54.5A120.16,120.16,0,0,0,880.89,802q19.65,30,39.3,60h0A101.73,101.73,0,0,1,916,889.71m1.33-60.48q-13.38-19.47-26.75-38.93a8.09,8.09,0,0,0-.53-.77l-.08-.11q-19.4-28.24-38.78-56.44c6.14-4,12-7.85,17.38-11.52l1.46-1q2.19,3.27,4.29,6.54c22.78,35.78,37.2,71.08,43,102.18"/><path class="cls-52" d="M867.66,934.24h0l-9-17.07-.34-.68v0l9.33,17.74"/><path class="cls-53" d="M868.14,935.18l-.5-.95h0l.49.94h0"/><path class="cls-52" d="M868.15,935.18l-.49-.94-9.33-17.74v0Q854,908,849.7,899.55c2.14-1.83,4.12-3.69,6-5.53q10.14,19,20.27,38-3.75,1.38-8,2.53c.11.2.21.42.34.66h0l-.07,0"/><path class="cls-54" d="M909.7,904.3c-8.93-15.64-19-33.16-29.69-52a96.68,96.68,0,0,0,3-17.12l33,54.5h0a72,72,0,0,1-6.27,14.59h0"/><path class="cls-55" d="M920.19,862q-19.65-30-39.3-60c-7.08-36.16-27.24-65.32-29.82-68.94l.09,0h0q19.41,28.23,38.78,56.43l.08.11a8.09,8.09,0,0,1,.53.77q13.38,19.46,26.75,38.93h0a158,158,0,0,1,2.89,32.8"/><path class="cls-56" d="M876.24,932.53c-.1-.18-.2-.38-.31-.56h0c12.19-4.48,20.15-10.66,25.52-16.41.29-.31.58-.62.85-.95a59.77,59.77,0,0,0,7.39-10.31c.06.11.11.2.17.29a62.08,62.08,0,0,1-8.21,11.28c-5.35,5.79-13.29,12-25.42,16.66"/><path class="cls-56" d="M916.13,890l-.16-.28A101.73,101.73,0,0,0,920.19,862h0l.22.33A102,102,0,0,1,916.13,890"/><path class="cls-56" d="M917.61,829.67l-.31-.44c-5.81-31.1-20.23-66.4-43-102.18,23,35.87,37.54,71.34,43.32,102.62"/><path class="cls-40" d="M868.22,935.16h0c-.13-.24-.23-.46-.34-.66q4.3-1.15,8-2.53c.11.18.21.38.31.56-2.49,1-5.16,1.83-8,2.63"/><path class="cls-57" d="M909.87,904.59c-.06-.09-.11-.18-.17-.29h0A72,72,0,0,0,916,889.71h0l.16.28a72.83,72.83,0,0,1-6.26,14.6"/><path class="cls-58" d="M920.41,862.36l-.22-.33a158,158,0,0,0-2.89-32.8h0l.31.44a159.21,159.21,0,0,1,2.8,32.69"/><path class="cls-59" d="M904.1,693.91l0,.15v0a1,1,0,0,1-.15.45,5.32,5.32,0,0,1-.44.64c-.29.34-.64.73-1.09,1.17s-1,.92-1.61,1.48c-.42.39-.86.78-1.34,1.17l-1.1.9a3,3,0,0,1-.43.33,9.16,9.16,0,0,1-.87.7l-.06.06-1.3,1-1.4,1.09c-1.85,1.44-4,3-6.31,4.7q-1.71,1.26-3.57,2.58l-1.34,1-3,2.1c-2.33,1.65-4.82,3.38-7.43,5.14L870,720.47c-5.79,4-12.14,8.16-18.84,12.52-1.85,1.22-3.71,2.41-5.61,3.63-1.75,1.13-3.5,2.25-5.24,3.33-3.73,2.37-7.36,4.66-10.9,6.84l-4.52,2.81c-.9.53-1.76,1.06-2.64,1.56h0c-1.51.94-3,1.83-4.46,2.7l-.08.06c-12.17,7.29-22.15,12.88-28.4,15.88l-.87.41c-3.6,1.66-5.74,2.36-6.08,1.83h0c-.33-.57,1.54-2.52,5.17-5.55,5.41-4.48,14.7-11.27,26.35-19.25q3.27-2.25,6.79-4.61c4.72-3.16,9.72-6.46,15-9.86,1.74-1.14,3.48-2.26,5.27-3.41s3.64-2.33,5.42-3.45c7.66-4.88,15-9.38,21.68-13.41,3.58-2.15,7-4.16,10.15-6,6.5-3.77,12.09-6.85,16.4-9,5.68-2.87,9.14-4.22,9.57-3.55"/><path class="cls-60" d="M822.24,751.17h0c.88-.5,1.74-1,2.64-1.56l4.52-2.81h0l-4.52,2.81c-.9.53-1.76,1.06-2.64,1.56h0"/><path class="cls-61" d="M840.31,739.94h0c1.74-1.07,3.49-2.19,5.24-3.32s3.71-2.38,5.52-3.58h0c-1.81,1.2-3.65,2.38-5.52,3.58s-3.5,2.25-5.24,3.33"/><path class="cls-62" d="M870,720.47h0l2.73-1.88h0L870,720.47"/><path class="cls-63" d="M851.07,733h0l.09,0h0l-.09,0"/><path class="cls-64" d="M788.43,770.22l-.43-.33c13-9.73,26.88-19.55,41.62-29.33,24.15-16,47.58-29.87,69.82-41.87l.08.31-1.1.9a3,3,0,0,1-.43.33,9,9,0,0,1-.86.7h0l-.06.06-1.3,1-1.4,1.09c-1.85,1.44-4,3-6.31,4.7q-1.71,1.26-3.57,2.58l-1.34,1-3,2.1c-2.32,1.65-4.82,3.38-7.42,5.14h0L870,720.47h0c-5.79,4-12.14,8.16-18.84,12.52h0l-.09,0c-1.81,1.2-3.65,2.38-5.52,3.58s-3.5,2.25-5.24,3.33h0c-3.73,2.37-7.36,4.66-10.9,6.84h0l-4.52,2.81c-.9.53-1.76,1.06-2.64,1.56h0c-1.51.94-3,1.83-4.46,2.7l-.08.06c-12.17,7.29-22.15,12.88-28.4,15.88l-.87.41h0"/><path class="cls-3" d="M1292.57,704.15q-45.12,7.47-92.54,17c-45.06,9.1-88.23,19-129.46,29.5h0s-.29.07-.63.13l-1.09.22c-.34.06-.66.12-1,.19-2.83.53-5.38,1-7.62,1.36l-3.2-.46c-2.75-.44-5.35-.81-7.91-1.12-2.36-.36-4.67-.63-6.9-.9-23.31-3-41.24-3.16-59.54,5.9-3,1.52-31.07,15.4-29.54,31.3,1.15,11.76,18.06,18,19.44,18.54,18.89,6.71,35-3.12,65.18-13.84,10.87-3.88,20.7-6.77,29.45-9.08l.74-.2,2.61-.68c3.05-.8,5.89-1.49,8.58-2.11l1.06-.27,8.09-1.74,191-6.45c22.21,1,40.69-10,45.67-25.61a31.91,31.91,0,0,0-2.73-25.34c-9.2-15.87-28.65-16.34-29.74-16.34Z"/><path class="cls-3" d="M1024.45,724.05c-2.24,2.24,6.32,12.48,17.8,26a15.81,15.81,0,0,1,1.06,1.21c3.38,4,6.64,7.52,12.08,8.6a19.32,19.32,0,0,0,4.57.31c4.75-.18,9.27-1.92,10.06-4.54.29-1,.06-2.23-2.14-4.46s-6.26-5.58-13.89-10.75c-.49-.34-1-.68-1.44-1-15.9-10.79-26-17.53-28.1-15.41Z"/><path class="cls-5" d="M901.42,960.29c-10.84-1.91-40.54-5-44.9,6.3-3.37,8.71,8.62,25.25,23.51,28.65,21.09,4.8,43.19-17.85,40.5-27.08-1.38-4.78-9.46-6.18-19.11-7.87Z"/><path class="cls-2" d="M1166.15,179.48a101,101,0,0,1,24.38,31.33c17.73,36.09,10.47,73.09,8.12,87-18.15,107.87,59.43,193.17,28,219.51-26.52,22.22-111-10.7-135.78-67.89-12.71-29.36-8.16-61.65-3.57-94.26,3.37-23.82,9.54-39.47,15.38-50.77a143,143,0,0,1,12.78-20.31,255.84,255.84,0,0,1,50.71-104.65"/><path class="cls-13" d="M1195.94,201.85l-.17,1.44-213.6-23.18c.13-.64.27-1.29.4-1.93a77.15,77.15,0,0,1,85.22-68.2l59.94,6.66a77.18,77.18,0,0,1,68.21,85.21"/><path class="cls-65" d="M1195.8,203.21l-1.75,16.4L980.13,196.88l-86.44-9.19.1-.16a28.42,28.42,0,0,1,27.82-14.23L982,179.9q106.89,11.64,213.77,23.31"/><path class="cls-66" d="M1195.63,182.27q-.27-2-.66-3.87a.15.15,0,0,1,0,.09c.23,1.14.44,2.4.64,3.78m-213.42-2.35h0c.12-.58.25-1.16.37-1.74l-.36,1.74m202-28.21a77.57,77.57,0,0,0-29.88-27.11,66.92,66.92,0,0,1,7.22,3.91,70.56,70.56,0,0,1,22.66,23.2m-52.14-34.46c-1.43-.24-2.89-.44-4.35-.61l-14.1-1.56s0,0,0,0a104.45,104.45,0,0,1,18.49,2.22"/><path class="cls-67" d="M1195.77,203.2,982.21,179.92l.36-1.74h0a76.84,76.84,0,0,1,2.6-13.06,148,148,0,0,0,56.05,11.34,133.38,133.38,0,0,0,13.65-.7c11.59-1.19,60.06-6.16,66.55-31.91,2.77-11-3.07-21.95-7.79-28.77l14.1,1.56c1.46.17,2.92.37,4.35.61a100.77,100.77,0,0,1,12.12,3.37,97.82,97.82,0,0,1,10.14,4,77.57,77.57,0,0,1,29.88,27.11A85.87,85.87,0,0,1,1195,178.4q.39,1.92.66,3.87a78.22,78.22,0,0,1,.31,19.58h0l-.17,1.35"/><path class="cls-68" d="M1194.05,219.61,980.13,196.88c.63-5.67,1.25-11.34,1.9-17l.17,0a.29.29,0,0,0,0,.09l213.59,23.28v-.09h0l-1.75,16.4"/><path class="cls-69" d="M1195.77,203.29,982.18,180a.29.29,0,0,1,0-.09Q1089,191.55,1195.77,203.2v.09"/><path class="cls-5" d="M1092.62,277.71c-7.95,13.4-9.84,27-4.2,30.31s16.64-4.8,24.61-18.2,9.84-27,4.19-30.32-16.63,4.81-24.6,18.21Z"/></g></svg>